<mxfile host="app.diagrams.net" modified="2024-03-26T15:14:00.577Z" agent="Mozilla/5.0 (Windows NT 10.0; Win64; x64) AppleWebKit/537.36 (KHTML, like Gecko) Chrome/123.0.0.0 Safari/537.36" etag="12tZ-HN8L_mdS_Ivtzdh" version="24.0.5" type="device">
  <diagram id="C5RBs43oDa-KdzZeNtuy" name="Page-1">
    <mxGraphModel dx="3617" dy="1257" grid="1" gridSize="10" guides="1" tooltips="1" connect="1" arrows="1" fold="1" page="1" pageScale="1" pageWidth="827" pageHeight="1169" math="0" shadow="0">
      <root>
        <mxCell id="WIyWlLk6GJQsqaUBKTNV-0" />
        <mxCell id="WIyWlLk6GJQsqaUBKTNV-1" parent="WIyWlLk6GJQsqaUBKTNV-0" />
        <mxCell id="6f671lk-CQySdU4DPiXB-6" value="&lt;p style=&quot;margin:0px;margin-top:4px;text-align:center;&quot;&gt;&lt;b&gt;&amp;lt;&amp;lt;Abstract&amp;gt;&amp;gt;â€¨&lt;br&gt;Entity&lt;/b&gt;&lt;br&gt;&lt;/p&gt;&lt;hr size=&quot;1&quot; style=&quot;border-style:solid;&quot;&gt;&lt;p style=&quot;margin:0px;margin-left:4px;&quot;&gt;# texture: Texture&lt;/p&gt;&lt;p style=&quot;margin:0px;margin-left:4px;&quot;&gt;# rectangle: Rectangle&lt;/p&gt;&lt;p style=&quot;margin:0px;margin-left:4px;&quot;&gt;# x: float&lt;/p&gt;&lt;p style=&quot;margin:0px;margin-left:4px;&quot;&gt;# y: float&lt;/p&gt;&lt;p style=&quot;margin:0px;margin-left:4px;&quot;&gt;# width: float&lt;/p&gt;&lt;p style=&quot;margin:0px;margin-left:4px;&quot;&gt;# height: float&lt;/p&gt;&lt;p style=&quot;margin:0px;margin-left:4px;&quot;&gt;# speed: float&lt;/p&gt;&lt;p style=&quot;margin:0px;margin-left:4px;&quot;&gt;# entityType: String&lt;/p&gt;&lt;p style=&quot;margin:0px;margin-left:4px;&quot;&gt;# isMovable: boolean&lt;/p&gt;&lt;p style=&quot;margin:0px;margin-left:4px;&quot;&gt;# isCollidable: boolean&lt;/p&gt;&lt;p style=&quot;margin:0px;margin-left:4px;&quot;&gt;# toRemove: boolean&lt;/p&gt;&lt;p style=&quot;margin:0px;margin-left:4px;&quot;&gt;# isVisible: boolean&lt;/p&gt;&lt;p style=&quot;margin:0px;margin-left:4px;&quot;&gt;# isInteractable: boolean&lt;/p&gt;&lt;hr size=&quot;1&quot; style=&quot;border-style:solid;&quot;&gt;&lt;p style=&quot;margin:0px;margin-left:4px;&quot;&gt;+ Entity(x: float, y: float, width: float, height: float, texturePath: String, speed: float, isMovable: boolean, entityType: String, isVisible: boolean, isInteractable: boolean)&lt;/p&gt;&lt;p style=&quot;margin:0px;margin-left:4px;&quot;&gt;+ draw(batch: SpriteBatch): void&lt;/p&gt;&lt;p style=&quot;margin:0px;margin-left:4px;&quot;&gt;+ updatePosition(): void&lt;/p&gt;&lt;p style=&quot;margin:0px;margin-left:4px;&quot;&gt;+ setPosition(x: float, y: float): void&lt;/p&gt;&lt;p style=&quot;margin:0px;margin-left:4px;&quot;&gt;+ getPosition(): Vector2&lt;/p&gt;&lt;p style=&quot;margin:0px;margin-left:4px;&quot;&gt;+ setInteractable(isInteractable: boolean): void&lt;/p&gt;&lt;p style=&quot;margin:0px;margin-left:4px;&quot;&gt;+ isInteractable(): boolean&lt;/p&gt;&lt;p style=&quot;margin:0px;margin-left:4px;&quot;&gt;+ setCollidable(isCollidable: boolean): void&lt;/p&gt;&lt;p style=&quot;margin:0px;margin-left:4px;&quot;&gt;+ isCollidable(): boolean&lt;/p&gt;&lt;p style=&quot;margin:0px;margin-left:4px;&quot;&gt;+ isToRemove(): boolean&lt;/p&gt;&lt;p style=&quot;margin:0px;margin-left:4px;&quot;&gt;+ setToRemove(toRemove: boolean): void&lt;/p&gt;&lt;p style=&quot;margin:0px;margin-left:4px;&quot;&gt;+ isVisible(): boolean&lt;/p&gt;&lt;p style=&quot;margin:0px;margin-left:4px;&quot;&gt;+ setVisible(isVisible: boolean): void&lt;/p&gt;&lt;p style=&quot;margin:0px;margin-left:4px;&quot;&gt;+ dispose(): void&lt;/p&gt;&lt;p style=&quot;margin:0px;margin-left:4px;&quot;&gt;+ getX(): float&lt;/p&gt;&lt;p style=&quot;margin:0px;margin-left:4px;&quot;&gt;+ setX(x: float): void&lt;/p&gt;&lt;p style=&quot;margin:0px;margin-left:4px;&quot;&gt;+ getY(): float&lt;/p&gt;&lt;p style=&quot;margin:0px;margin-left:4px;&quot;&gt;+ setY(y: float): void&lt;/p&gt;&lt;p style=&quot;margin:0px;margin-left:4px;&quot;&gt;+ getWidth(): float&lt;/p&gt;&lt;p style=&quot;margin:0px;margin-left:4px;&quot;&gt;+ setWidth(width: float): void&lt;/p&gt;&lt;p style=&quot;margin:0px;margin-left:4px;&quot;&gt;+ getHeight(): float&lt;/p&gt;&lt;p style=&quot;margin:0px;margin-left:4px;&quot;&gt;+ setHeight(height: float): void&lt;/p&gt;&lt;p style=&quot;margin:0px;margin-left:4px;&quot;&gt;+ getSpeed(): float&lt;/p&gt;&lt;p style=&quot;margin:0px;margin-left:4px;&quot;&gt;+ setSpeed(speed: float): void&lt;/p&gt;&lt;p style=&quot;margin:0px;margin-left:4px;&quot;&gt;+ getEntityType(): String&lt;/p&gt;&lt;p style=&quot;margin:0px;margin-left:4px;&quot;&gt;+ setEntityType(entityType: String): void&lt;/p&gt;&lt;p style=&quot;margin:0px;margin-left:4px;&quot;&gt;+ isMovable(): boolean&lt;/p&gt;&lt;p style=&quot;margin:0px;margin-left:4px;&quot;&gt;+ setMovable(isMovable: boolean): void&lt;/p&gt;&lt;p style=&quot;margin:0px;margin-left:4px;&quot;&gt;+ getRectangle(): Rectangle&lt;/p&gt;&lt;p style=&quot;margin:0px;margin-left:4px;&quot;&gt;+ setRectangle(rectangle: Rectangle): void&lt;/p&gt;&lt;p style=&quot;margin:0px;margin-left:4px;&quot;&gt;+ getTexture(): Texture&lt;/p&gt;&lt;p style=&quot;margin:0px;margin-left:4px;&quot;&gt;+ setTexture(texture: Texture): void&lt;/p&gt;&lt;p style=&quot;margin:0px;margin-left:4px;&quot;&gt;&lt;span style=&quot;background-color: initial;&quot;&gt;+ setTexture(texturePath: String): void&lt;/span&gt;&lt;span style=&quot;background-color: initial;&quot;&gt;&amp;nbsp;&lt;/span&gt;&lt;br&gt;&lt;/p&gt;" style="verticalAlign=top;align=left;overflow=fill;html=1;whiteSpace=wrap;" vertex="1" parent="WIyWlLk6GJQsqaUBKTNV-1">
          <mxGeometry x="50" y="110" width="300" height="770" as="geometry" />
        </mxCell>
        <mxCell id="6f671lk-CQySdU4DPiXB-7" value="&lt;p style=&quot;margin:0px;margin-top:4px;text-align:center;&quot;&gt;&lt;b&gt;SimulationManager&lt;/b&gt;&lt;br&gt;&lt;/p&gt;&lt;hr size=&quot;1&quot; style=&quot;border-style:solid;&quot;&gt;&lt;p style=&quot;margin:0px;margin-left:4px;&quot;&gt;&lt;/p&gt;&lt;p style=&quot;margin:0px;margin-left:4px;&quot;&gt;+ create(void): void&lt;/p&gt;&lt;p style=&quot;margin:0px;margin-left:4px;&quot;&gt;+ render(void): void&lt;/p&gt;&lt;p style=&quot;margin:0px;margin-left:4px;&quot;&gt;+ pause(void): void&lt;/p&gt;&lt;p style=&quot;margin:0px;margin-left:4px;&quot;&gt;+ resume(void): void&lt;/p&gt;&lt;p style=&quot;margin:0px;margin-left:4px;&quot;&gt;+ dispose(void): void&lt;/p&gt;" style="verticalAlign=top;align=left;overflow=fill;html=1;whiteSpace=wrap;" vertex="1" parent="WIyWlLk6GJQsqaUBKTNV-1">
          <mxGeometry x="370" y="110" width="160" height="110" as="geometry" />
        </mxCell>
        <mxCell id="6f671lk-CQySdU4DPiXB-9" value="&lt;p style=&quot;margin:0px;margin-top:4px;text-align:center;&quot;&gt;&lt;b&gt;Utils&lt;/b&gt;&lt;br&gt;&lt;/p&gt;&lt;hr size=&quot;1&quot; style=&quot;border-style:solid;&quot;&gt;&lt;p style=&quot;margin:0px;margin-left:4px;&quot;&gt;+getInternalFilePath(filePath: String): FileHandle&lt;/p&gt;&lt;p style=&quot;margin:0px;margin-left:4px;&quot;&gt;+keyNameToKeyCode(key: String): int&lt;/p&gt;&lt;p style=&quot;margin:0px;margin-left:4px;&quot;&gt;+keyCodeToKeyName(keyCode: int): String&lt;/p&gt;&lt;hr size=&quot;1&quot; style=&quot;border-style:solid;&quot;&gt;&lt;p style=&quot;margin:0px;margin-left:4px;&quot;&gt;+loadSettings(filePath: String, key: String): Object&lt;/p&gt;&lt;p style=&quot;margin:0px;margin-left:4px;&quot;&gt;+saveSettings(filePath: String, key: String, settings: HashMap&amp;lt;String, String&amp;gt;): void&lt;/p&gt;" style="verticalAlign=top;align=left;overflow=fill;html=1;whiteSpace=wrap;" vertex="1" parent="WIyWlLk6GJQsqaUBKTNV-1">
          <mxGeometry x="550" y="110" width="240" height="170" as="geometry" />
        </mxCell>
        <mxCell id="6f671lk-CQySdU4DPiXB-10" style="edgeStyle=orthogonalEdgeStyle;rounded=0;orthogonalLoop=1;jettySize=auto;html=1;exitX=0.5;exitY=1;exitDx=0;exitDy=0;" edge="1" parent="WIyWlLk6GJQsqaUBKTNV-1" source="6f671lk-CQySdU4DPiXB-9" target="6f671lk-CQySdU4DPiXB-9">
          <mxGeometry relative="1" as="geometry" />
        </mxCell>
        <mxCell id="6f671lk-CQySdU4DPiXB-11" value="&lt;p style=&quot;margin:0px;margin-top:4px;text-align:center;&quot;&gt;&lt;b&gt;&amp;lt;&amp;lt;abstract&amp;gt;&amp;gt;&lt;br&gt;Scene&lt;/b&gt;&lt;br&gt;&lt;/p&gt;&lt;hr size=&quot;1&quot; style=&quot;border-style:solid;&quot;&gt;&lt;p style=&quot;margin:0px;margin-left:4px;&quot;&gt;# batch: SpriteBatch&lt;/p&gt;&lt;p style=&quot;margin:0px;margin-left:4px;&quot;&gt;- background: Texture&lt;/p&gt;&lt;p style=&quot;margin:0px;margin-left:4px;&quot;&gt;- backgroundMusic: SoundEffects&lt;/p&gt;&lt;p style=&quot;margin:0px;margin-left:4px;&quot;&gt;- sceneType: String&lt;/p&gt;&lt;hr size=&quot;1&quot; style=&quot;border-style:solid;&quot;&gt;&lt;p style=&quot;margin:0px;margin-left:4px;&quot;&gt;+ Scene(backgroundFileName: String, backgroundMusicFileName: String, sceneType: String)&lt;/p&gt;&lt;p style=&quot;margin:0px;margin-left:4px;&quot;&gt;+ setBatch(batch: SpriteBatch): void&lt;/p&gt;&lt;p style=&quot;margin:0px;margin-left:4px;&quot;&gt;+ getSceneType(): String&lt;/p&gt;&lt;p style=&quot;margin:0px;margin-left:4px;&quot;&gt;+ setSceneType(sceneType: String): void&lt;/p&gt;&lt;p style=&quot;margin:0px;margin-left:4px;&quot;&gt;+ show(): void&lt;/p&gt;&lt;p style=&quot;margin:0px;margin-left:4px;&quot;&gt;+ hide(): void&lt;/p&gt;&lt;p style=&quot;margin:0px;margin-left:4px;&quot;&gt;+ render(delta: float): void&lt;/p&gt;&lt;p style=&quot;margin:0px;margin-left:4px;&quot;&gt;+ renderBackground(x: float, y: float, width: float, height: float): void&lt;/p&gt;&lt;p style=&quot;margin:0px;margin-left:4px;&quot;&gt;+ playBackgroundMusic(volume: float): void&lt;/p&gt;&lt;p style=&quot;margin:0px;margin-left:4px;&quot;&gt;+ stopBackgroundMusic(): void&lt;/p&gt;&lt;p style=&quot;margin:0px;margin-left:4px;&quot;&gt;+ disposeBackgroundMusic(): void&lt;/p&gt;" style="verticalAlign=top;align=left;overflow=fill;html=1;whiteSpace=wrap;" vertex="1" parent="WIyWlLk6GJQsqaUBKTNV-1">
          <mxGeometry x="120" y="1080" width="240" height="330" as="geometry" />
        </mxCell>
        <mxCell id="6f671lk-CQySdU4DPiXB-12" value="&lt;p style=&quot;margin:0px;margin-top:4px;text-align:center;&quot;&gt;&lt;b&gt;SceneManager&lt;/b&gt;&lt;br&gt;&lt;/p&gt;&lt;hr size=&quot;1&quot; style=&quot;border-style:solid;&quot;&gt;&lt;p style=&quot;margin:0px;margin-left:4px;&quot;&gt;- currentScene: Scene&lt;/p&gt;&lt;p style=&quot;margin:0px;margin-left:4px;&quot;&gt;- previousScene: Scene&lt;/p&gt;&lt;p style=&quot;margin:0px;margin-left:4px;&quot;&gt;- scenes: HashMap&amp;lt;String, Scene&amp;gt;&lt;/p&gt;&lt;hr size=&quot;1&quot; style=&quot;border-style:solid;&quot;&gt;&lt;p style=&quot;margin:0px;margin-left:4px;&quot;&gt;+ SceneManager()&lt;/p&gt;&lt;p style=&quot;margin:0px;margin-left:4px;&quot;&gt;+ addScene(scene: Scene): void&lt;/p&gt;&lt;p style=&quot;margin:0px;margin-left:4px;&quot;&gt;+ removeScene(sceneType: String): void&lt;/p&gt;&lt;p style=&quot;margin:0px;margin-left:4px;&quot;&gt;+ getScene(sceneType: String): Scene&lt;/p&gt;&lt;p style=&quot;margin:0px;margin-left:4px;&quot;&gt;+ getAllScenes(): ArrayList&amp;lt;Scene&amp;gt;&lt;/p&gt;&lt;p style=&quot;margin:0px;margin-left:4px;&quot;&gt;+ getCurrentScene(): Scene&lt;/p&gt;&lt;p style=&quot;margin:0px;margin-left:4px;&quot;&gt;+ getPreviousScene(): Scene&lt;/p&gt;&lt;p style=&quot;margin:0px;margin-left:4px;&quot;&gt;+ setScene(sceneType: String): void&lt;/p&gt;&lt;p style=&quot;margin:0px;margin-left:4px;&quot;&gt;+ setScreen(screen: Scene): void&lt;/p&gt;&lt;p style=&quot;margin:0px;margin-left:4px;&quot;&gt;+ dispose(): void&lt;/p&gt;" style="verticalAlign=top;align=left;overflow=fill;html=1;whiteSpace=wrap;" vertex="1" parent="WIyWlLk6GJQsqaUBKTNV-1">
          <mxGeometry x="180" y="1480" width="240" height="240" as="geometry" />
        </mxCell>
        <mxCell id="6f671lk-CQySdU4DPiXB-13" value="&lt;p style=&quot;margin:0px;margin-top:4px;text-align:center;&quot;&gt;&lt;b&gt;Button&lt;/b&gt;&lt;br&gt;&lt;/p&gt;&lt;hr size=&quot;1&quot; style=&quot;border-style:solid;&quot;&gt;&lt;p style=&quot;margin:0px;margin-left:4px;&quot;&gt;- x: float&lt;/p&gt;&lt;p style=&quot;margin:0px;margin-left:4px;&quot;&gt;- y: float&lt;/p&gt;&lt;p style=&quot;margin:0px;margin-left:4px;&quot;&gt;- width: float&lt;/p&gt;&lt;p style=&quot;margin:0px;margin-left:4px;&quot;&gt;- height: float&lt;/p&gt;&lt;p style=&quot;margin:0px;margin-left:4px;&quot;&gt;- buttonType: String&lt;/p&gt;&lt;p style=&quot;margin:0px;margin-left:4px;&quot;&gt;- texture: Texture&lt;/p&gt;&lt;p style=&quot;margin:0px;margin-left:4px;&quot;&gt;- text: String&lt;/p&gt;&lt;p style=&quot;margin:0px;margin-left:4px;&quot;&gt;- font: BitmapFont&lt;/p&gt;&lt;hr size=&quot;1&quot; style=&quot;border-style:solid;&quot;&gt;&lt;p style=&quot;margin:0px;margin-left:4px;&quot;&gt;+ Button(x: float, y: float, width: float, height: float, buttonType: String, texturePath: String, text: String, fontPath: String, fontSize: int)&lt;/p&gt;&lt;p style=&quot;margin:0px;margin-left:4px;&quot;&gt;+ isPressed(screenX: int, screenY: int): boolean&lt;/p&gt;&lt;p style=&quot;margin:0px;margin-left:4px;&quot;&gt;+ getTexture(): Texture&lt;/p&gt;&lt;p style=&quot;margin:0px;margin-left:4px;&quot;&gt;+ setTexture(texture: Texture): void&lt;/p&gt;&lt;p style=&quot;margin:0px;margin-left:4px;&quot;&gt;+ draw(batch: Batch): void&lt;/p&gt;&lt;p style=&quot;margin:0px;margin-left:4px;&quot;&gt;+ getX(): float&lt;/p&gt;&lt;p style=&quot;margin:0px;margin-left:4px;&quot;&gt;+ getY(): float&lt;/p&gt;&lt;p style=&quot;margin:0px;margin-left:4px;&quot;&gt;+ getWidth(): float&lt;/p&gt;&lt;p style=&quot;margin:0px;margin-left:4px;&quot;&gt;+ getHeight(): float&lt;/p&gt;&lt;p style=&quot;margin:0px;margin-left:4px;&quot;&gt;+ getButtonType(): String&lt;/p&gt;&lt;p style=&quot;margin:0px;margin-left:4px;&quot;&gt;+ dispose(): void&lt;/p&gt;" style="verticalAlign=top;align=left;overflow=fill;html=1;whiteSpace=wrap;" vertex="1" parent="WIyWlLk6GJQsqaUBKTNV-1">
          <mxGeometry x="370" y="650" width="280" height="380" as="geometry" />
        </mxCell>
        <mxCell id="6f671lk-CQySdU4DPiXB-14" value="&lt;p style=&quot;margin:0px;margin-top:4px;text-align:center;&quot;&gt;&lt;b&gt;&amp;lt;&amp;lt;interface&amp;gt;&amp;gt;&lt;br&gt;ButtonClickListener&lt;/b&gt;&lt;br&gt;&lt;/p&gt;&lt;hr size=&quot;1&quot; style=&quot;border-style:solid;&quot;&gt;&lt;p style=&quot;margin:0px;margin-left:4px;&quot;&gt;&lt;/p&gt;&lt;p style=&quot;margin:0px;margin-left:4px;&quot;&gt;+ onClick(button: Button): void&lt;br&gt;&lt;/p&gt;" style="verticalAlign=top;align=left;overflow=fill;html=1;whiteSpace=wrap;" vertex="1" parent="WIyWlLk6GJQsqaUBKTNV-1">
          <mxGeometry x="660" y="600" width="280" height="70" as="geometry" />
        </mxCell>
        <mxCell id="6f671lk-CQySdU4DPiXB-15" value="&lt;p style=&quot;margin:0px;margin-top:4px;text-align:center;&quot;&gt;&lt;b&gt;ButtonManager&lt;/b&gt;&lt;br&gt;&lt;/p&gt;&lt;hr size=&quot;1&quot; style=&quot;border-style:solid;&quot;&gt;&lt;p style=&quot;margin:0px;margin-left:4px;&quot;&gt;- buttons: List&amp;lt;Button&amp;gt;&lt;/p&gt;&lt;p style=&quot;margin:0px;margin-left:4px;&quot;&gt;- clickListener: ButtonClickListener&lt;/p&gt;&lt;hr size=&quot;1&quot; style=&quot;border-style:solid;&quot;&gt;&lt;p style=&quot;margin:0px;margin-left:4px;&quot;&gt;+ ButtonManager(clickListener: ButtonClickListener)&lt;/p&gt;&lt;p style=&quot;margin:0px;margin-left:4px;&quot;&gt;+ addButton(button: Button): void&lt;/p&gt;&lt;p style=&quot;margin:0px;margin-left:4px;&quot;&gt;+ touchUp(screenX: int, screenY: int, pointer: int, button: int): boolean&lt;/p&gt;&lt;p style=&quot;margin:0px;margin-left:4px;&quot;&gt;+ setButtonsInputProcessor(): void&lt;/p&gt;&lt;p style=&quot;margin:0px;margin-left:4px;&quot;&gt;+ drawButtons(batch: Batch): void&lt;/p&gt;&lt;p style=&quot;margin:0px;margin-left:4px;&quot;&gt;+ dispose(): void&lt;/p&gt;" style="verticalAlign=top;align=left;overflow=fill;html=1;whiteSpace=wrap;" vertex="1" parent="WIyWlLk6GJQsqaUBKTNV-1">
          <mxGeometry x="510" y="1480" width="280" height="200" as="geometry" />
        </mxCell>
        <mxCell id="6f671lk-CQySdU4DPiXB-16" value="&lt;p style=&quot;margin:0px;margin-top:4px;text-align:center;&quot;&gt;&lt;b&gt;ToggleButton&lt;/b&gt;&lt;br&gt;&lt;/p&gt;&lt;hr size=&quot;1&quot; style=&quot;border-style:solid;&quot;&gt;&lt;p style=&quot;margin:0px;margin-left:4px;&quot;&gt;- textures: ArrayList&amp;lt;Texture&amp;gt;&lt;/p&gt;&lt;p style=&quot;margin:0px;margin-left:4px;&quot;&gt;- currentTextureIndex: int&lt;/p&gt;&lt;hr size=&quot;1&quot; style=&quot;border-style:solid;&quot;&gt;&lt;p style=&quot;margin:0px;margin-left:4px;&quot;&gt;+ ToggleButton(x: float, y: float, width: float, height: float, buttonType: String, texturePaths: String[], text: String, fontPath: String, fontSize: int)&lt;/p&gt;&lt;p style=&quot;margin:0px;margin-left:4px;&quot;&gt;+ toggleTexture(): void&lt;/p&gt;&lt;p style=&quot;margin:0px;margin-left:4px;&quot;&gt;+ dispose(): void&lt;/p&gt;" style="verticalAlign=top;align=left;overflow=fill;html=1;whiteSpace=wrap;" vertex="1" parent="WIyWlLk6GJQsqaUBKTNV-1">
          <mxGeometry x="645" y="420" width="270" height="150" as="geometry" />
        </mxCell>
        <mxCell id="6f671lk-CQySdU4DPiXB-17" value="&lt;p style=&quot;margin:0px;margin-top:4px;text-align:center;&quot;&gt;&lt;b&gt;IOManager&lt;/b&gt;&lt;br&gt;&lt;/p&gt;&lt;hr size=&quot;1&quot; style=&quot;border-style:solid;&quot;&gt;&lt;p style=&quot;margin:0px;margin-left:4px;&quot;&gt;- inputType: String&lt;/p&gt;&lt;p style=&quot;margin:0px;margin-left:4px;&quot;&gt;- inputSource: String&lt;/p&gt;&lt;hr size=&quot;1&quot; style=&quot;border-style:solid;&quot;&gt;&lt;p style=&quot;margin:0px;margin-left:4px;&quot;&gt;+ getInputType(): String&lt;/p&gt;&lt;p style=&quot;margin:0px;margin-left:4px;&quot;&gt;+ setInputType(inputType: String): void&lt;/p&gt;&lt;p style=&quot;margin:0px;margin-left:4px;&quot;&gt;+ getInputSource(): String&lt;/p&gt;&lt;p style=&quot;margin:0px;margin-left:4px;&quot;&gt;+ setInputSource(inputSource: String): void&lt;/p&gt;&lt;p style=&quot;margin:0px;margin-left:4px;&quot;&gt;+ processInput(): void&lt;/p&gt;&lt;p style=&quot;margin:0px;margin-left:4px;&quot;&gt;+ print(message: String): void&lt;/p&gt;&lt;p style=&quot;margin:0px;margin-left:4px;&quot;&gt;+ display(image: String): void&lt;/p&gt;&lt;p style=&quot;margin:0px;margin-left:4px;&quot;&gt;+ playSound(sound: String): void&lt;/p&gt;&lt;p style=&quot;margin:0px;margin-left:4px;&quot;&gt;+ showMessage(message: String): void&lt;/p&gt;&lt;p style=&quot;margin:0px;margin-left:4px;&quot;&gt;+ playSoundEffect(filePath: String, volume: float): void&lt;/p&gt;&lt;p style=&quot;margin:0px;margin-left:4px;&quot;&gt;+ incrementScore(scoreBoard: Scoreboard, points: int): void&lt;/p&gt;&lt;p style=&quot;margin:0px;margin-left:4px;&quot;&gt;+ getScore(scoreBoard: Scoreboard): int&lt;/p&gt;&lt;p style=&quot;margin:0px;margin-left:4px;&quot;&gt;+ incrementPlayerScore(player: Player, points: int): void&lt;/p&gt;&lt;p style=&quot;margin:0px;margin-left:4px;&quot;&gt;+ getPlayerScore(player: Player): int&lt;/p&gt;&lt;p style=&quot;margin:0px;margin-left:4px;&quot;&gt;+ resetPlayerScore(player: Player): void&lt;/p&gt;&lt;p style=&quot;margin:0px;margin-left:4px;&quot;&gt;+ resetPlayerDifficulty(player: Player): void&lt;/p&gt;&lt;p style=&quot;margin:0px;margin-left:4px;&quot;&gt;+ resetPlayer(player: Player): void&lt;/p&gt;" style="verticalAlign=top;align=left;overflow=fill;html=1;whiteSpace=wrap;" vertex="1" parent="WIyWlLk6GJQsqaUBKTNV-1">
          <mxGeometry x="960" y="600" width="330" height="330" as="geometry" />
        </mxCell>
        <mxCell id="6f671lk-CQySdU4DPiXB-18" value="&lt;p style=&quot;margin:0px;margin-top:4px;text-align:center;&quot;&gt;&lt;b&gt;KeyStrokeManager&lt;/b&gt;&lt;br&gt;&lt;/p&gt;&lt;hr size=&quot;1&quot; style=&quot;border-style:solid;&quot;&gt;&lt;p style=&quot;margin:0px;margin-left:4px;&quot;&gt;&lt;span style=&quot;background-color: initial;&quot;&gt;- keyStrokeMap: HashMap&amp;lt;String, Integer&amp;gt;&lt;/span&gt;&lt;br&gt;&lt;/p&gt;&lt;p style=&quot;margin:0px;margin-left:4px;&quot;&gt;+ KeyStrokeManager(filePath: String)&lt;/p&gt;&lt;p style=&quot;margin:0px;margin-left:4px;&quot;&gt;+ getKeyCode(keyStrokeName: String): Integer&lt;/p&gt;&lt;p style=&quot;margin:0px;margin-left:4px;&quot;&gt;+ getKeyStrokeMap(): HashMap&amp;lt;String, Integer&amp;gt;&lt;/p&gt;&lt;p style=&quot;margin:0px;margin-left:4px;&quot;&gt;+ setKeyCode(keyStrokeName: String): void&lt;/p&gt;&lt;p style=&quot;margin:0px;margin-left:4px;&quot;&gt;+ isKeyPressed(keyStrokeName: String): boolean&lt;/p&gt;&lt;p style=&quot;margin:0px;margin-left:4px;&quot;&gt;+ getKeyPressed(): String&lt;/p&gt;&lt;p style=&quot;margin:0px;margin-left:4px;&quot;&gt;+ saveKeyStrokes(filePath: String): void&lt;/p&gt;&lt;p style=&quot;margin:0px;margin-left:4px;&quot;&gt;+ loadKeyStrokes(filePath: String): void&lt;/p&gt;&lt;p style=&quot;margin:0px;margin-left:4px;&quot;&gt;+ keyCodeToKeyStroke(): HashMap&amp;lt;String, String&amp;gt;&lt;/p&gt;&lt;p style=&quot;margin:0px;margin-left:4px;&quot;&gt;+ dispose(): void&lt;/p&gt;" style="verticalAlign=top;align=left;overflow=fill;html=1;whiteSpace=wrap;" vertex="1" parent="WIyWlLk6GJQsqaUBKTNV-1">
          <mxGeometry x="-147.5" y="1484.5" width="280" height="195.5" as="geometry" />
        </mxCell>
        <mxCell id="6f671lk-CQySdU4DPiXB-19" value="&lt;p style=&quot;margin:0px;margin-top:4px;text-align:center;&quot;&gt;&lt;b&gt;Player&lt;/b&gt;&lt;br&gt;&lt;/p&gt;&lt;hr size=&quot;1&quot; style=&quot;border-style:solid;&quot;&gt;&lt;p style=&quot;margin:0px;margin-left:4px;&quot;&gt;- name: String&lt;/p&gt;&lt;p style=&quot;margin:0px;margin-left:4px;&quot;&gt;- score: int&lt;/p&gt;&lt;p style=&quot;margin:0px;margin-left:4px;&quot;&gt;- difficulty: int&lt;/p&gt;&lt;hr size=&quot;1&quot; style=&quot;border-style:solid;&quot;&gt;&lt;p style=&quot;margin:0px;margin-left:4px;&quot;&gt;+ Player(name: String)&lt;/p&gt;&lt;p style=&quot;margin:0px;margin-left:4px;&quot;&gt;+ setName(name: String): void&lt;/p&gt;&lt;p style=&quot;margin:0px;margin-left:4px;&quot;&gt;+ setScore(score: int): void&lt;/p&gt;&lt;p style=&quot;margin:0px;margin-left:4px;&quot;&gt;+ setDifficulty(difficulty: int): void&lt;/p&gt;&lt;p style=&quot;margin:0px;margin-left:4px;&quot;&gt;+ getName(): String&lt;/p&gt;&lt;p style=&quot;margin:0px;margin-left:4px;&quot;&gt;+ getScore(): int&lt;/p&gt;&lt;p style=&quot;margin:0px;margin-left:4px;&quot;&gt;+ getDifficulty(): int&lt;/p&gt;&lt;p style=&quot;margin:0px;margin-left:4px;&quot;&gt;+ incrementScore(points: int): void&lt;/p&gt;&lt;p style=&quot;margin:0px;margin-left:4px;&quot;&gt;+ resetScore(): void&lt;/p&gt;&lt;p style=&quot;margin:0px;margin-left:4px;&quot;&gt;+ resetDifficulty(): void&lt;/p&gt;&lt;p style=&quot;margin:0px;margin-left:4px;&quot;&gt;+ resetPlayer(): void&lt;/p&gt;" style="verticalAlign=top;align=left;overflow=fill;html=1;whiteSpace=wrap;" vertex="1" parent="WIyWlLk6GJQsqaUBKTNV-1">
          <mxGeometry x="810" y="55" width="200" height="250" as="geometry" />
        </mxCell>
        <mxCell id="6f671lk-CQySdU4DPiXB-20" value="&lt;p style=&quot;margin:0px;margin-top:4px;text-align:center;&quot;&gt;&lt;b&gt;Scoreboard&lt;/b&gt;&lt;br&gt;&lt;/p&gt;&lt;hr size=&quot;1&quot; style=&quot;border-style:solid;&quot;&gt;&lt;p style=&quot;margin:0px;margin-left:4px;&quot;&gt;- score: int&lt;/p&gt;&lt;hr size=&quot;1&quot; style=&quot;border-style:solid;&quot;&gt;&lt;p style=&quot;margin:0px;margin-left:4px;&quot;&gt;+ Scoreboard()&lt;/p&gt;&lt;p style=&quot;margin:0px;margin-left:4px;&quot;&gt;+ incrementScore(points: int): void&lt;/p&gt;&lt;p style=&quot;margin:0px;margin-left:4px;&quot;&gt;+ getScore(): int&lt;/p&gt;" style="verticalAlign=top;align=left;overflow=fill;html=1;whiteSpace=wrap;" vertex="1" parent="WIyWlLk6GJQsqaUBKTNV-1">
          <mxGeometry x="1030" y="240" width="200" height="105" as="geometry" />
        </mxCell>
        <mxCell id="6f671lk-CQySdU4DPiXB-21" value="&lt;p style=&quot;margin:0px;margin-top:4px;text-align:center;&quot;&gt;&lt;b&gt;SoundEffects&lt;/b&gt;&lt;br&gt;&lt;/p&gt;&lt;hr size=&quot;1&quot; style=&quot;border-style:solid;&quot;&gt;&lt;p style=&quot;margin:0px;margin-left:4px;&quot;&gt;- sound: Sound&lt;/p&gt;&lt;hr size=&quot;1&quot; style=&quot;border-style:solid;&quot;&gt;&lt;p style=&quot;margin:0px;margin-left:4px;&quot;&gt;+ SoundEffects(filePath: String)&lt;/p&gt;&lt;p style=&quot;margin:0px;margin-left:4px;&quot;&gt;+ play(volume: float): void&lt;/p&gt;&lt;p style=&quot;margin:0px;margin-left:4px;&quot;&gt;+ stop(): void&lt;/p&gt;&lt;p style=&quot;margin:0px;margin-left:4px;&quot;&gt;+ dispose(): void&lt;/p&gt;" style="verticalAlign=top;align=left;overflow=fill;html=1;whiteSpace=wrap;" vertex="1" parent="WIyWlLk6GJQsqaUBKTNV-1">
          <mxGeometry x="1030" y="100" width="200" height="120" as="geometry" />
        </mxCell>
        <mxCell id="6f671lk-CQySdU4DPiXB-22" value="&lt;p style=&quot;margin:0px;margin-top:4px;text-align:center;&quot;&gt;&lt;b&gt;Timer&lt;/b&gt;&lt;br&gt;&lt;/p&gt;&lt;hr size=&quot;1&quot; style=&quot;border-style:solid;&quot;&gt;&lt;p style=&quot;margin:0px;margin-left:4px;&quot;&gt;- startTime: long&lt;/p&gt;&lt;p style=&quot;margin:0px;margin-left:4px;&quot;&gt;- countdownTime: long&lt;/p&gt;&lt;p style=&quot;margin:0px;margin-left:4px;&quot;&gt;- isRunning: boolean&lt;/p&gt;&lt;p style=&quot;margin:0px;margin-left:4px;&quot;&gt;- font: BitmapFont&lt;/p&gt;&lt;p style=&quot;margin:0px;margin-left:4px;&quot;&gt;- x: float&lt;/p&gt;&lt;p style=&quot;margin:0px;margin-left:4px;&quot;&gt;- y: float&lt;/p&gt;&lt;p style=&quot;margin:0px;margin-left:4px;&quot;&gt;- isPaused: boolean&lt;/p&gt;&lt;p style=&quot;margin:0px;margin-left:4px;&quot;&gt;- pauseStartTime: long&lt;/p&gt;&lt;p style=&quot;margin:0px;margin-left:4px;&quot;&gt;- pausedTime: long&lt;/p&gt;&lt;p style=&quot;margin:0px;margin-left:4px;&quot;&gt;- countdownSeconds: int&lt;/p&gt;&lt;hr size=&quot;1&quot; style=&quot;border-style:solid;&quot;&gt;&lt;p style=&quot;margin:0px;margin-left:4px;&quot;&gt;+ Timer(x: float, y: float, countdownSeconds: int)&lt;/p&gt;&lt;p style=&quot;margin:0px;margin-left:4px;&quot;&gt;+ startTimer(): void&lt;/p&gt;&lt;p style=&quot;margin:0px;margin-left:4px;&quot;&gt;+ addTime(additionalSeconds: int): void&lt;/p&gt;&lt;p style=&quot;margin:0px;margin-left:4px;&quot;&gt;+ pauseTimer(): void&lt;/p&gt;&lt;p style=&quot;margin:0px;margin-left:4px;&quot;&gt;+ resumeTimer(): void&lt;/p&gt;&lt;p style=&quot;margin:0px;margin-left:4px;&quot;&gt;+ stopTimer(): void&lt;/p&gt;&lt;p style=&quot;margin:0px;margin-left:4px;&quot;&gt;+ resetTimer(): void&lt;/p&gt;&lt;p style=&quot;margin:0px;margin-left:4px;&quot;&gt;+ updateAndRender(batch: SpriteBatch): void&lt;/p&gt;&lt;p style=&quot;margin:0px;margin-left:4px;&quot;&gt;+ updateEffect(): void&lt;/p&gt;&lt;p style=&quot;margin:0px;margin-left:4px;&quot;&gt;+ getRemainingTime(): int&lt;/p&gt;&lt;p style=&quot;margin:0px;margin-left:4px;&quot;&gt;+ getElapsedTime(): long&lt;/p&gt;&lt;p style=&quot;margin:0px;margin-left:4px;&quot;&gt;+ isTimerEnded(): boolean&lt;/p&gt;&lt;p style=&quot;margin:0px;margin-left:4px;&quot;&gt;+ isRunning(): boolean&lt;/p&gt;&lt;p style=&quot;margin:0px;margin-left:4px;&quot;&gt;+ isPaused(): boolean&lt;/p&gt;&lt;p style=&quot;margin:0px;margin-left:4px;&quot;&gt;+ dispose(): void&lt;/p&gt;" style="verticalAlign=top;align=left;overflow=fill;html=1;whiteSpace=wrap;" vertex="1" parent="WIyWlLk6GJQsqaUBKTNV-1">
          <mxGeometry x="1250" y="100" width="200" height="450" as="geometry" />
        </mxCell>
        <mxCell id="6f671lk-CQySdU4DPiXB-23" value="&lt;p style=&quot;margin:0px;margin-top:4px;text-align:center;&quot;&gt;&lt;b&gt;Font&lt;/b&gt;&lt;br&gt;&lt;/p&gt;&lt;hr size=&quot;1&quot; style=&quot;border-style:solid;&quot;&gt;&lt;p style=&quot;margin:0px;margin-left:4px;&quot;&gt;- generator: FreeTypeFontGenerator&lt;/p&gt;&lt;p style=&quot;margin:0px;margin-left:4px;&quot;&gt;- parameter: FreeTypeFontParameter&lt;/p&gt;&lt;p style=&quot;margin:0px;margin-left:4px;&quot;&gt;- size: int&lt;/p&gt;&lt;hr size=&quot;1&quot; style=&quot;border-style:solid;&quot;&gt;&lt;p style=&quot;margin:0px;margin-left:4px;&quot;&gt;+ Font(fontPath: String, size: int)&lt;/p&gt;&lt;p style=&quot;margin:0px;margin-left:4px;&quot;&gt;+ createFont(): BitmapFont&lt;/p&gt;&lt;p style=&quot;margin:0px;margin-left:4px;&quot;&gt;+ setSize(size: int): void&lt;/p&gt;&lt;p style=&quot;margin:0px;margin-left:4px;&quot;&gt;+ getSize(): int&lt;/p&gt;&lt;p style=&quot;margin:0px;margin-left:4px;&quot;&gt;+ dispose(): void&lt;/p&gt;" style="verticalAlign=top;align=left;overflow=fill;html=1;whiteSpace=wrap;" vertex="1" parent="WIyWlLk6GJQsqaUBKTNV-1">
          <mxGeometry x="1330" y="640" width="220" height="180" as="geometry" />
        </mxCell>
        <mxCell id="6f671lk-CQySdU4DPiXB-24" value="&lt;p style=&quot;margin:0px;margin-top:4px;text-align:center;&quot;&gt;&lt;b&gt;EntityManager&lt;/b&gt;&lt;br&gt;&lt;/p&gt;&lt;hr size=&quot;1&quot; style=&quot;border-style:solid;&quot;&gt;&lt;p style=&quot;margin:0px;margin-left:4px;&quot;&gt;- entities: ArrayList&amp;lt;Entity&amp;gt;&lt;/p&gt;&lt;hr size=&quot;1&quot; style=&quot;border-style:solid;&quot;&gt;&lt;p style=&quot;margin:0px;margin-left:4px;&quot;&gt;+ EntityManager()&lt;/p&gt;&lt;p style=&quot;margin:0px;margin-left:4px;&quot;&gt;+ addEntity(entity: Entity): void&lt;/p&gt;&lt;p style=&quot;margin:0px;margin-left:4px;&quot;&gt;+ addEntities(entities: ArrayList&amp;lt;? extends Entity&amp;gt;): void&lt;/p&gt;&lt;p style=&quot;margin:0px;margin-left:4px;&quot;&gt;+ setMovability(entities: ArrayList&amp;lt;? extends Entity&amp;gt;, isMovable: boolean): void&lt;/p&gt;&lt;p style=&quot;margin:0px;margin-left:4px;&quot;&gt;+ removeEntity(entity: Entity): void&lt;/p&gt;&lt;p style=&quot;margin:0px;margin-left:4px;&quot;&gt;+ removeEntities(entities: ArrayList&amp;lt;Entity&amp;gt;): void&lt;/p&gt;&lt;p style=&quot;margin:0px;margin-left:4px;&quot;&gt;+ getEntities(): ArrayList&amp;lt;Entity&amp;gt;&lt;/p&gt;&lt;p style=&quot;margin:0px;margin-left:4px;&quot;&gt;+ getEntitiesByInteractability(isInteractable: boolean): ArrayList&amp;lt;Entity&amp;gt;&lt;/p&gt;&lt;p style=&quot;margin:0px;margin-left:4px;&quot;&gt;+ getAllEntityPosition(): ArrayList&amp;lt;Point&amp;gt;&lt;/p&gt;&lt;p style=&quot;margin:0px;margin-left:4px;&quot;&gt;+ getAllEntityPosition(entityType: String): ArrayList&amp;lt;Point&amp;gt;&lt;/p&gt;&lt;p style=&quot;margin:0px;margin-left:4px;&quot;&gt;+ getEntities(entityType: String): ArrayList&amp;lt;Entity&amp;gt;&lt;/p&gt;&lt;p style=&quot;margin:0px;margin-left:4px;&quot;&gt;+ getAllCollidableEntity(): ArrayList&amp;lt;Entity&amp;gt;&lt;/p&gt;&lt;p style=&quot;margin:0px;margin-left:4px;&quot;&gt;+ getEntitiesCount(): int&lt;/p&gt;&lt;p style=&quot;margin:0px;margin-left:4px;&quot;&gt;+ getEntitiesCount(entityType: String): int&lt;/p&gt;&lt;p style=&quot;margin:0px;margin-left:4px;&quot;&gt;+ removeEntities(): void&lt;/p&gt;&lt;p style=&quot;margin:0px;margin-left:4px;&quot;&gt;+ dispose(): void&lt;/p&gt;" style="verticalAlign=top;align=left;overflow=fill;html=1;whiteSpace=wrap;" vertex="1" parent="WIyWlLk6GJQsqaUBKTNV-1">
          <mxGeometry x="930" y="1310" width="300" height="360" as="geometry" />
        </mxCell>
        <mxCell id="6f671lk-CQySdU4DPiXB-25" value="&lt;p style=&quot;margin:0px;margin-top:4px;text-align:center;&quot;&gt;&lt;b&gt;ControlManager&lt;/b&gt;&lt;br&gt;&lt;/p&gt;&lt;hr size=&quot;1&quot; style=&quot;border-style:solid;&quot;&gt;&lt;p style=&quot;margin:0px;margin-left:4px;&quot;&gt;&lt;/p&gt;&lt;p style=&quot;margin:0px;margin-left:4px;&quot;&gt;+ calculateMovement(movementDelta: Vector2, x: float, y: float): Vector2&lt;/p&gt;&lt;p style=&quot;margin:0px;margin-left:4px;&quot;&gt;&lt;br&gt;&lt;/p&gt;&lt;p style=&quot;margin:0px;margin-left:4px;&quot;&gt;&lt;br&gt;&lt;/p&gt;&lt;p style=&quot;margin:0px;margin-left:4px;&quot;&gt;&lt;br&gt;&lt;/p&gt;&lt;p style=&quot;margin:0px;margin-left:4px;&quot;&gt;&lt;br&gt;&lt;/p&gt;&lt;p style=&quot;margin:0px;margin-left:4px;&quot;&gt;&lt;br&gt;&lt;/p&gt;" style="verticalAlign=top;align=left;overflow=fill;html=1;whiteSpace=wrap;" vertex="1" parent="WIyWlLk6GJQsqaUBKTNV-1">
          <mxGeometry x="375" y="1050" width="270" height="70" as="geometry" />
        </mxCell>
        <mxCell id="6f671lk-CQySdU4DPiXB-27" value="&lt;p style=&quot;margin:0px;margin-top:4px;text-align:center;&quot;&gt;&lt;b&gt;CollisionManager&lt;/b&gt;&lt;br&gt;&lt;/p&gt;&lt;hr size=&quot;1&quot; style=&quot;border-style:solid;&quot;&gt;&lt;p style=&quot;margin:0px;margin-left:4px;&quot;&gt;&lt;/p&gt;&lt;p style=&quot;margin:0px;margin-left:4px;&quot;&gt;+ willCollide(entity: Entity, newPosition: Vector2, allEntities: ArrayList&amp;lt;Entity&amp;gt;): Entity&lt;/p&gt;&lt;p style=&quot;margin:0px;margin-left:4px;&quot;&gt;+ isCollidingWith(entity: Entity, other: Entity): boolean&lt;/p&gt;&lt;p style=&quot;margin:0px;margin-left:4px;&quot;&gt;+ checkHorizontalCollision(entity: Entity, horizontalMovementDelta: Vector2, allEntities: ArrayList&amp;lt;Entity&amp;gt;): Entity&lt;/p&gt;" style="verticalAlign=top;align=left;overflow=fill;html=1;whiteSpace=wrap;" vertex="1" parent="WIyWlLk6GJQsqaUBKTNV-1">
          <mxGeometry x="960" y="950" width="270" height="140" as="geometry" />
        </mxCell>
        <mxCell id="6f671lk-CQySdU4DPiXB-28" value="&lt;p style=&quot;margin:0px;margin-top:4px;text-align:center;&quot;&gt;&lt;b&gt;Game&lt;/b&gt;&lt;br&gt;&lt;/p&gt;&lt;hr size=&quot;1&quot; style=&quot;border-style:solid;&quot;&gt;&lt;p style=&quot;margin:0px;margin-left:4px;&quot;&gt;- EntityManager: EntityManager&lt;/p&gt;&lt;p style=&quot;margin:0px;margin-left:4px;&quot;&gt;- SceneManager: SceneManager&lt;/p&gt;&lt;p style=&quot;margin:0px;margin-left:4px;&quot;&gt;- KeyStrokeManager: KeyStrokeManager&lt;/p&gt;&lt;p style=&quot;margin:0px;margin-left:4px;&quot;&gt;- batch: SpriteBatch&lt;/p&gt;&lt;hr size=&quot;1&quot; style=&quot;border-style:solid;&quot;&gt;&lt;p style=&quot;margin:0px;margin-left:4px;&quot;&gt;+ create(): void&lt;/p&gt;&lt;p style=&quot;margin:0px;margin-left:4px;&quot;&gt;+ render(): void&lt;/p&gt;&lt;p style=&quot;margin:0px;margin-left:4px;&quot;&gt;+ resize(width: int, height: int): void&lt;/p&gt;&lt;p style=&quot;margin:0px;margin-left:4px;&quot;&gt;+ pause(): void&lt;/p&gt;&lt;p style=&quot;margin:0px;margin-left:4px;&quot;&gt;+ resume(): void&lt;/p&gt;&lt;p style=&quot;margin:0px;margin-left:4px;&quot;&gt;+ dispose(): void&lt;/p&gt;" style="verticalAlign=top;align=left;overflow=fill;html=1;whiteSpace=wrap;" vertex="1" parent="WIyWlLk6GJQsqaUBKTNV-1">
          <mxGeometry x="532.5" y="1920" width="240" height="200" as="geometry" />
        </mxCell>
        <mxCell id="6f671lk-CQySdU4DPiXB-29" value="&lt;p style=&quot;margin:0px;margin-top:4px;text-align:center;&quot;&gt;&lt;b&gt;GameConfig&lt;/b&gt;&lt;br&gt;&lt;/p&gt;&lt;hr size=&quot;1&quot; style=&quot;border-style:solid;&quot;&gt;&lt;p style=&quot;margin:0px;margin-left:4px;&quot;&gt;- SCREEN_WIDTH: int&lt;/p&gt;&lt;p style=&quot;margin:0px;margin-left:4px;&quot;&gt;- SCREEN_HEIGHT: int&lt;/p&gt;&lt;p style=&quot;margin:0px;margin-left:4px;&quot;&gt;- RESIZABLE: boolean&lt;/p&gt;&lt;p style=&quot;margin:0px;margin-left:4px;&quot;&gt;- FULLSCREEN: boolean&lt;/p&gt;&lt;p style=&quot;margin:0px;margin-left:4px;&quot;&gt;- FPS: int&lt;/p&gt;&lt;p style=&quot;margin:0px;margin-left:4px;&quot;&gt;- TITLE: String&lt;/p&gt;&lt;p style=&quot;margin:0px;margin-left:4px;&quot;&gt;- GRAVITY: float&lt;/p&gt;&lt;p style=&quot;margin:0px;margin-left:4px;&quot;&gt;- NUM_OF_OBSTACLES: int&lt;/p&gt;&lt;p style=&quot;margin:0px;margin-left:4px;&quot;&gt;- NUM_OF_APPLES: int&lt;/p&gt;&lt;p style=&quot;margin:0px;margin-left:4px;&quot;&gt;- APPLE_EFFECT_TIME: int&lt;/p&gt;&lt;p style=&quot;margin:0px;margin-left:4px;&quot;&gt;- APPLE_SPEED_MULTIPLIER: float&lt;/p&gt;&lt;p style=&quot;margin:0px;margin-left:4px;&quot;&gt;- NUM_OF_BURGERS: int&lt;/p&gt;&lt;p style=&quot;margin:0px;margin-left:4px;&quot;&gt;- BURGER_EFFECT_TIME: int&lt;/p&gt;&lt;p style=&quot;margin:0px;margin-left:4px;&quot;&gt;- BURGER_SPEED_MULTIPLIER: float&lt;/p&gt;&lt;p style=&quot;margin:0px;margin-left:4px;&quot;&gt;- NUM_OF_CARROTS: int&lt;/p&gt;&lt;p style=&quot;margin:0px;margin-left:4px;&quot;&gt;- CARROT_EFFECT_TIME: int&lt;/p&gt;&lt;p style=&quot;margin:0px;margin-left:4px;&quot;&gt;- BLOCK_SIZE: int&lt;/p&gt;&lt;p style=&quot;margin:0px;margin-left:4px;&quot;&gt;- PLAYER_WIDTH: int&lt;/p&gt;&lt;p style=&quot;margin:0px;margin-left:4px;&quot;&gt;- PLAYER_HEIGHT: int&lt;/p&gt;&lt;p style=&quot;margin:0px;margin-left:4px;&quot;&gt;- PLAYER_STAMINA: int&lt;/p&gt;&lt;p style=&quot;margin:0px;margin-left:4px;&quot;&gt;- MUSIC_VOLUME: float&lt;/p&gt;&lt;p style=&quot;margin:0px;margin-left:4px;&quot;&gt;- TIME_LIMIT: int&lt;/p&gt;&lt;p style=&quot;margin:0px;margin-left:4px;&quot;&gt;- PLAYER_SPEED: int&lt;/p&gt;&lt;p style=&quot;margin:0px;margin-left:4px;&quot;&gt;- IS_MUSIC_ENABLED: boolean&lt;/p&gt;&lt;p style=&quot;margin:0px;margin-left:4px;&quot;&gt;- SPEED_REDUCTION_FACTOR: float&lt;/p&gt;&lt;p style=&quot;margin:0px;margin-left:4px;&quot;&gt;- BUTTON_FONT_SIZE: int&lt;/p&gt;&lt;p style=&quot;margin:0px;margin-left:4px;&quot;&gt;- SETTINGS_FILE_PATH: String&lt;/p&gt;&lt;p style=&quot;margin:0px;margin-left:4px;&quot;&gt;- SETTINGS_SOUND_KEY: String&lt;/p&gt;&lt;p style=&quot;margin:0px;margin-left:4px;&quot;&gt;- SETTINGS_KEYSTROKES_KEY: String&lt;/p&gt;&lt;p style=&quot;margin:0px;margin-left:4px;&quot;&gt;- PLAYER_START_POSITION: Point&lt;/p&gt;&lt;p style=&quot;margin:0px;margin-left:4px;&quot;&gt;- EXIT_PORTAL_POSITION: Point&lt;/p&gt;&lt;p style=&quot;margin:0px;margin-left:4px;&quot;&gt;- BUTTON_WIDTH: float&lt;/p&gt;&lt;p style=&quot;margin:0px;margin-left:4px;&quot;&gt;- BUTTON_HEIGHT: float&lt;/p&gt;&lt;p style=&quot;margin:0px;margin-left:4px;&quot;&gt;- BLOCK_BORDER_POSITIONS: ArrayList&amp;lt;Point&amp;gt;&lt;/p&gt;&lt;hr size=&quot;1&quot; style=&quot;border-style:solid;&quot;&gt;&lt;p style=&quot;margin:0px;margin-left:4px;&quot;&gt;+ GameEntityType&lt;/p&gt;&lt;p style=&quot;margin:0px;margin-left:4px;&quot;&gt;+ GameSceneType&lt;/p&gt;&lt;p style=&quot;margin:0px;margin-left:4px;&quot;&gt;+ Keystroke&lt;/p&gt;&lt;p style=&quot;margin:0px;margin-left:4px;&quot;&gt;+ GameButtonType&lt;/p&gt;&lt;p style=&quot;margin:0px;margin-left:4px;&quot;&gt;+ GameButtonText&lt;/p&gt;&lt;p style=&quot;margin:0px;margin-left:4px;&quot;&gt;+ Assets&lt;/p&gt;" style="verticalAlign=top;align=left;overflow=fill;html=1;whiteSpace=wrap;" vertex="1" parent="WIyWlLk6GJQsqaUBKTNV-1">
          <mxGeometry x="467.5" y="2230" width="240" height="640" as="geometry" />
        </mxCell>
        <mxCell id="6f671lk-CQySdU4DPiXB-30" value="&lt;p style=&quot;margin:0px;margin-top:4px;text-align:center;&quot;&gt;&lt;b&gt;GameOverLose&lt;/b&gt;&lt;br&gt;&lt;/p&gt;&lt;hr size=&quot;1&quot; style=&quot;border-style:solid;&quot;&gt;&lt;p style=&quot;margin:0px;margin-left:4px;&quot;&gt;- sceneManager: SceneManager&lt;/p&gt;&lt;p style=&quot;margin:0px;margin-left:4px;&quot;&gt;- buttonManager: ButtonManager&lt;/p&gt;&lt;hr size=&quot;1&quot; style=&quot;border-style:solid;&quot;&gt;&lt;p style=&quot;margin:0px;margin-left:4px;&quot;&gt;+ GameOverLose(sceneManager: SceneManager)&lt;/p&gt;&lt;p style=&quot;margin:0px;margin-left:4px;&quot;&gt;+ show(): void&lt;/p&gt;&lt;p style=&quot;margin:0px;margin-left:4px;&quot;&gt;+ hide(): void&lt;/p&gt;&lt;p style=&quot;margin:0px;margin-left:4px;&quot;&gt;+ render(delta: float): void&lt;/p&gt;&lt;p style=&quot;margin:0px;margin-left:4px;&quot;&gt;+ dispose(): void&lt;/p&gt;" style="verticalAlign=top;align=left;overflow=fill;html=1;whiteSpace=wrap;" vertex="1" parent="WIyWlLk6GJQsqaUBKTNV-1">
          <mxGeometry x="965" y="1850" width="190" height="170" as="geometry" />
        </mxCell>
        <mxCell id="6f671lk-CQySdU4DPiXB-31" value="&lt;p style=&quot;margin:0px;margin-top:4px;text-align:center;&quot;&gt;&lt;b&gt;GameOverWin&lt;/b&gt;&lt;br&gt;&lt;/p&gt;&lt;hr size=&quot;1&quot; style=&quot;border-style:solid;&quot;&gt;&lt;p style=&quot;margin:0px;margin-left:4px;&quot;&gt;- sceneManager: SceneManager&lt;/p&gt;&lt;p style=&quot;margin:0px;margin-left:4px;&quot;&gt;- buttonManager: ButtonManager&lt;/p&gt;&lt;hr size=&quot;1&quot; style=&quot;border-style:solid;&quot;&gt;&lt;p style=&quot;margin:0px;margin-left:4px;&quot;&gt;+ GameOverWin(sceneManager: SceneManager)&lt;/p&gt;&lt;p style=&quot;margin:0px;margin-left:4px;&quot;&gt;+ show(): void&lt;/p&gt;&lt;p style=&quot;margin:0px;margin-left:4px;&quot;&gt;+ hide(): void&lt;/p&gt;&lt;p style=&quot;margin:0px;margin-left:4px;&quot;&gt;+ render(delta: float): void&lt;/p&gt;&lt;p style=&quot;margin:0px;margin-left:4px;&quot;&gt;+ dispose(): void&lt;/p&gt;" style="verticalAlign=top;align=left;overflow=fill;html=1;whiteSpace=wrap;" vertex="1" parent="WIyWlLk6GJQsqaUBKTNV-1">
          <mxGeometry x="965" y="2090" width="190" height="170" as="geometry" />
        </mxCell>
        <mxCell id="6f671lk-CQySdU4DPiXB-33" value="&lt;p style=&quot;margin:0px;margin-top:4px;text-align:center;&quot;&gt;&lt;b&gt;&amp;lt;&amp;lt;abstract&amp;gt;&amp;gt;&lt;br&gt;GameScene&lt;/b&gt;&lt;br&gt;&lt;/p&gt;&lt;hr size=&quot;1&quot; style=&quot;border-style:solid;&quot;&gt;&lt;p style=&quot;margin:0px;margin-left:4px;&quot;&gt;- entityManager: EntityManager&lt;/p&gt;&lt;p style=&quot;margin:0px;margin-left:4px;&quot;&gt;- sceneManager: SceneManager&lt;/p&gt;&lt;p style=&quot;margin:0px;margin-left:4px;&quot;&gt;- keyStrokeManager: KeyStrokeManager&lt;/p&gt;&lt;p style=&quot;margin:0px;margin-left:4px;&quot;&gt;- buttonManager: ButtonManager&lt;/p&gt;&lt;p style=&quot;margin:0px;margin-left:4px;&quot;&gt;- timer: Timer&lt;/p&gt;&lt;p style=&quot;margin:0px;margin-left:4px;&quot;&gt;- nextScene: String&lt;/p&gt;&lt;p style=&quot;margin:0px;margin-left:4px;&quot;&gt;- isPaused: boolean&lt;/p&gt;&lt;p style=&quot;margin:0px;margin-left:4px;&quot;&gt;- pauseKeyIsPressed: boolean&lt;/p&gt;&lt;p style=&quot;margin:0px;margin-left:4px;&quot;&gt;- pauseOverlay: Texture&lt;/p&gt;&lt;p style=&quot;margin:0px;margin-left:4px;&quot;&gt;- resumeBtn: Button&lt;/p&gt;&lt;p style=&quot;margin:0px;margin-left:4px;&quot;&gt;- mainMenuBtn: Button&lt;/p&gt;&lt;p style=&quot;margin:0px;margin-left:4px;&quot;&gt;- quitBtn: Button&lt;/p&gt;&lt;p style=&quot;margin:0px;margin-left:4px;&quot;&gt;- clickListener: ButtonClickListener&lt;/p&gt;&lt;hr size=&quot;1&quot; style=&quot;border-style:solid;&quot;&gt;&lt;p style=&quot;margin:0px;margin-left:4px;&quot;&gt;+ GameScene(sceneManager: SceneManager, entityManager: EntityManager, keyStrokeManager: KeyStrokeManager, gameSceneType: String)&lt;/p&gt;&lt;p style=&quot;margin:0px;margin-left:4px;&quot;&gt;+ show(): void&lt;/p&gt;&lt;p style=&quot;margin:0px;margin-left:4px;&quot;&gt;+ hide(): void&lt;/p&gt;&lt;p style=&quot;margin:0px;margin-left:4px;&quot;&gt;+ render(delta: float): void&lt;/p&gt;&lt;p style=&quot;margin:0px;margin-left:4px;&quot;&gt;+ dispose(): void&lt;/p&gt;&lt;p style=&quot;margin:0px;margin-left:4px;&quot;&gt;# createEntities(): abstract void&lt;/p&gt;&lt;p style=&quot;margin:0px;margin-left:4px;&quot;&gt;# checkWinCondition(entity: Entity): abstract void&lt;/p&gt;&lt;p style=&quot;margin:0px;margin-left:4px;&quot;&gt;# applyEffects(): abstract void&lt;/p&gt;&lt;p style=&quot;margin:0px;margin-left:4px;&quot;&gt;- getTimer(): Timer&lt;/p&gt;&lt;p style=&quot;margin:0px;margin-left:4px;&quot;&gt;- createPauseGameOverlay(): void&lt;/p&gt;&lt;p style=&quot;margin:0px;margin-left:4px;&quot;&gt;- togglePause(): void&lt;/p&gt;&lt;p style=&quot;margin:0px;margin-left:4px;&quot;&gt;- drawEntitiesAndCheckWinCondition(delta: float): void&lt;/p&gt;&lt;p style=&quot;margin:0px;margin-left:4px;&quot;&gt;- createButtonClickListener(): ButtonClickListener&lt;/p&gt;&lt;p style=&quot;margin:0px;margin-left:4px;&quot;&gt;# setNextScene(nextScene: String): void&lt;/p&gt;" style="verticalAlign=top;align=left;overflow=fill;html=1;whiteSpace=wrap;" vertex="1" parent="WIyWlLk6GJQsqaUBKTNV-1">
          <mxGeometry x="-27.5" y="2310" width="300" height="480" as="geometry" />
        </mxCell>
        <mxCell id="6f671lk-CQySdU4DPiXB-34" style="edgeStyle=orthogonalEdgeStyle;rounded=0;orthogonalLoop=1;jettySize=auto;html=1;exitX=0.5;exitY=1;exitDx=0;exitDy=0;" edge="1" parent="WIyWlLk6GJQsqaUBKTNV-1" source="6f671lk-CQySdU4DPiXB-33" target="6f671lk-CQySdU4DPiXB-33">
          <mxGeometry relative="1" as="geometry" />
        </mxCell>
        <mxCell id="6f671lk-CQySdU4DPiXB-35" value="&lt;p style=&quot;margin:0px;margin-top:4px;text-align:center;&quot;&gt;&lt;b&gt;GameSceneLvl1&lt;/b&gt;&lt;br&gt;&lt;/p&gt;&lt;hr size=&quot;1&quot; style=&quot;border-style:solid;&quot;&gt;&lt;p style=&quot;margin:0px;margin-left:4px;&quot;&gt;- entityManager : EntityManager&lt;/p&gt;&lt;p style=&quot;margin:0px;margin-left:4px;&quot;&gt;- keyStrokeManager : KeyStrokeManager&lt;/p&gt;&lt;p style=&quot;margin:0px;margin-left:4px;&quot;&gt;- blockManager : BlockManager&lt;/p&gt;&lt;p style=&quot;margin:0px;margin-left:4px;&quot;&gt;- player : Player&lt;/p&gt;&lt;hr size=&quot;1&quot; style=&quot;border-style:solid;&quot;&gt;&lt;p style=&quot;margin:0px;margin-left:4px;&quot;&gt;+ GameSceneLvl1(sceneManager: SceneManager, entityManager: EntityManager, keyStrokeManager: KeyStrokeManager)&lt;/p&gt;&lt;p style=&quot;margin:0px;margin-left:4px;&quot;&gt;# createEntities() : void&lt;/p&gt;&lt;p style=&quot;margin:0px;margin-left:4px;&quot;&gt;# checkWinCondition(entity: Entity) : void&lt;/p&gt;&lt;p style=&quot;margin:0px;margin-left:4px;&quot;&gt;# applyEffects() : void&lt;/p&gt;" style="verticalAlign=top;align=left;overflow=fill;html=1;whiteSpace=wrap;" vertex="1" parent="WIyWlLk6GJQsqaUBKTNV-1">
          <mxGeometry x="-167.5" y="2000" width="300" height="200" as="geometry" />
        </mxCell>
        <mxCell id="6f671lk-CQySdU4DPiXB-36" value="&lt;p style=&quot;margin:0px;margin-top:4px;text-align:center;&quot;&gt;&lt;b&gt;GameSceneLvl2&lt;/b&gt;&lt;br&gt;&lt;/p&gt;&lt;hr size=&quot;1&quot; style=&quot;border-style:solid;&quot;&gt;&lt;p style=&quot;margin:0px;margin-left:4px;&quot;&gt;- entityManager : EntityManager&lt;/p&gt;&lt;p style=&quot;margin:0px;margin-left:4px;&quot;&gt;- keyStrokeManager : KeyStrokeManager&lt;/p&gt;&lt;p style=&quot;margin:0px;margin-left:4px;&quot;&gt;- blockManager : BlockManager&lt;/p&gt;&lt;p style=&quot;margin:0px;margin-left:4px;&quot;&gt;- player : Player&lt;/p&gt;&lt;hr size=&quot;1&quot; style=&quot;border-style:solid;&quot;&gt;&lt;p style=&quot;margin:0px;margin-left:4px;&quot;&gt;+ GameSceneLvl2(sceneManager: SceneManager, entityManager: EntityManager, keyStrokeManager: KeyStrokeManager)&lt;/p&gt;&lt;p style=&quot;margin:0px;margin-left:4px;&quot;&gt;# createEntities() : void&lt;/p&gt;&lt;p style=&quot;margin:0px;margin-left:4px;&quot;&gt;# checkWinCondition(entity: Entity) : void&lt;/p&gt;&lt;p style=&quot;margin:0px;margin-left:4px;&quot;&gt;# applyEffects() : void&lt;/p&gt;" style="verticalAlign=top;align=left;overflow=fill;html=1;whiteSpace=wrap;" vertex="1" parent="WIyWlLk6GJQsqaUBKTNV-1">
          <mxGeometry x="167.5" y="1960" width="300" height="200" as="geometry" />
        </mxCell>
        <mxCell id="6f671lk-CQySdU4DPiXB-37" value="&lt;p style=&quot;margin:0px;margin-top:4px;text-align:center;&quot;&gt;&lt;b&gt;MainMenu&lt;/b&gt;&lt;br&gt;&lt;/p&gt;&lt;hr size=&quot;1&quot; style=&quot;border-style:solid;&quot;&gt;&lt;p style=&quot;margin:0px;margin-left:4px;&quot;&gt;- background : Texture&lt;/p&gt;&lt;p style=&quot;margin:0px;margin-left:4px;&quot;&gt;- logoTexture : Texture&lt;/p&gt;&lt;p style=&quot;margin:0px;margin-left:4px;&quot;&gt;- sceneManager : SceneManager&lt;/p&gt;&lt;p style=&quot;margin:0px;margin-left:4px;&quot;&gt;- tutorialBtn : Button&lt;/p&gt;&lt;p style=&quot;margin:0px;margin-left:4px;&quot;&gt;- settingsBtn : Button&lt;/p&gt;&lt;p style=&quot;margin:0px;margin-left:4px;&quot;&gt;- quitBtn : Button&lt;/p&gt;&lt;p style=&quot;margin:0px;margin-left:4px;&quot;&gt;- buttonManager : ButtonManager&lt;/p&gt;&lt;p style=&quot;margin:0px;margin-left:4px;&quot;&gt;- clickListener : ButtonClickListener&lt;/p&gt;&lt;hr size=&quot;1&quot; style=&quot;border-style:solid;&quot;&gt;&lt;p style=&quot;margin:0px;margin-left:4px;&quot;&gt;+ MainMenu(sceneManager: SceneManager)&lt;/p&gt;&lt;p style=&quot;margin:0px;margin-left:4px;&quot;&gt;+ getLogoTexture() : Texture&lt;/p&gt;&lt;p style=&quot;margin:0px;margin-left:4px;&quot;&gt;+ show() : void&lt;/p&gt;&lt;p style=&quot;margin:0px;margin-left:4px;&quot;&gt;+ hide() : void&lt;/p&gt;&lt;p style=&quot;margin:0px;margin-left:4px;&quot;&gt;+ render(delta: float) : void&lt;/p&gt;&lt;p style=&quot;margin:0px;margin-left:4px;&quot;&gt;+ dispose() : void&lt;/p&gt;" style="verticalAlign=top;align=left;overflow=fill;html=1;whiteSpace=wrap;" vertex="1" parent="WIyWlLk6GJQsqaUBKTNV-1">
          <mxGeometry x="932.5" y="2350" width="255" height="250" as="geometry" />
        </mxCell>
        <mxCell id="6f671lk-CQySdU4DPiXB-38" value="&lt;p style=&quot;margin:0px;margin-top:4px;text-align:center;&quot;&gt;&lt;b&gt;Settings&lt;/b&gt;&lt;br&gt;&lt;/p&gt;&lt;hr size=&quot;1&quot; style=&quot;border-style:solid;&quot;&gt;&lt;p style=&quot;margin:0px;margin-left:4px;&quot;&gt;- sceneManager : SceneManager&lt;/p&gt;&lt;p style=&quot;margin:0px;margin-left:4px;&quot;&gt;- buttonManager : ButtonManager&lt;/p&gt;&lt;p style=&quot;margin:0px;margin-left:4px;&quot;&gt;- soundBtn : ToggleButton&lt;/p&gt;&lt;p style=&quot;margin:0px;margin-left:4px;&quot;&gt;- backBtn : Button&lt;/p&gt;&lt;p style=&quot;margin:0px;margin-left:4px;&quot;&gt;- clickListener : ButtonClickListener&lt;/p&gt;&lt;hr size=&quot;1&quot; style=&quot;border-style:solid;&quot;&gt;&lt;p style=&quot;margin:0px;margin-left:4px;&quot;&gt;+ Settings(sceneManager: SceneManager)&lt;/p&gt;&lt;p style=&quot;margin:0px;margin-left:4px;&quot;&gt;+ show() : void&lt;/p&gt;&lt;p style=&quot;margin:0px;margin-left:4px;&quot;&gt;+ hide() : void&lt;/p&gt;&lt;p style=&quot;margin:0px;margin-left:4px;&quot;&gt;+ render(delta: float) : void&lt;/p&gt;&lt;p style=&quot;margin:0px;margin-left:4px;&quot;&gt;+ dispose() : void&lt;/p&gt;&lt;p style=&quot;margin:0px;margin-left:4px;&quot;&gt;- createSoundButton(X: float, Y: float) : ToggleButton&lt;/p&gt;&lt;p style=&quot;margin:0px;margin-left:4px;&quot;&gt;- createBackButton(X: float, Y: float) : Button&lt;/p&gt;" style="verticalAlign=top;align=left;overflow=fill;html=1;whiteSpace=wrap;" vertex="1" parent="WIyWlLk6GJQsqaUBKTNV-1">
          <mxGeometry x="927.5" y="2640" width="255" height="250" as="geometry" />
        </mxCell>
        <mxCell id="6f671lk-CQySdU4DPiXB-39" value="&lt;p style=&quot;margin:0px;margin-top:4px;text-align:center;&quot;&gt;&lt;b&gt;Tutorial&lt;/b&gt;&lt;br&gt;&lt;/p&gt;&lt;hr size=&quot;1&quot; style=&quot;border-style:solid;&quot;&gt;&lt;p style=&quot;margin:0px;margin-left:4px;&quot;&gt;- sceneManager : SceneManager&lt;/p&gt;&lt;p style=&quot;margin:0px;margin-left:4px;&quot;&gt;- buttonManager : ButtonManager&lt;/p&gt;&lt;p style=&quot;margin:0px;margin-left:4px;&quot;&gt;- clickListener : ButtonClickListener&lt;/p&gt;&lt;hr size=&quot;1&quot; style=&quot;border-style:solid;&quot;&gt;&lt;p style=&quot;margin:0px;margin-left:4px;&quot;&gt;+ Tutorial(sceneManager: SceneManager)&lt;/p&gt;&lt;p style=&quot;margin:0px;margin-left:4px;&quot;&gt;+ show() : void&lt;/p&gt;&lt;p style=&quot;margin:0px;margin-left:4px;&quot;&gt;+ hide() : void&lt;/p&gt;&lt;p style=&quot;margin:0px;margin-left:4px;&quot;&gt;+ render(delta: float) : void&lt;/p&gt;&lt;p style=&quot;margin:0px;margin-left:4px;&quot;&gt;+ dispose() : void&lt;/p&gt;" style="verticalAlign=top;align=left;overflow=fill;html=1;whiteSpace=wrap;" vertex="1" parent="WIyWlLk6GJQsqaUBKTNV-1">
          <mxGeometry x="910" y="2960" width="255" height="170" as="geometry" />
        </mxCell>
        <mxCell id="6f671lk-CQySdU4DPiXB-40" value="&lt;p style=&quot;margin:0px;margin-top:4px;text-align:center;&quot;&gt;&lt;b&gt;Movement&lt;/b&gt;&lt;br&gt;&lt;/p&gt;&lt;hr size=&quot;1&quot; style=&quot;border-style:solid;&quot;&gt;&lt;p style=&quot;margin:0px;margin-left:4px;&quot;&gt;- keyStrokeManager : KeyStrokeManager&lt;/p&gt;&lt;hr size=&quot;1&quot; style=&quot;border-style:solid;&quot;&gt;&lt;p style=&quot;margin:0px;margin-left:4px;&quot;&gt;+ Movement(keyStrokeManager: KeyStrokeManager, x: float, speed: float, isJumping: boolean, jumpSpeed: float, gravity: float)&lt;/p&gt;&lt;p style=&quot;margin:0px;margin-left:4px;&quot;&gt;+ applyHorizontalMovement(entity: Entity, allEntities: ArrayList&amp;lt;Entity&amp;gt;, deltaTime: float) : void&lt;/p&gt;&lt;p style=&quot;margin:0px;margin-left:4px;&quot;&gt;+ calculateHorizontalMovement(speed: float, deltaTime: float) : Vector2&lt;/p&gt;&lt;p style=&quot;margin:0px;margin-left:4px;&quot;&gt;+ applyVerticalMovement(entity: Entity, allEntities: ArrayList&amp;lt;Entity&amp;gt;, deltaTime: float) : void&lt;/p&gt;&lt;p style=&quot;margin:0px;margin-left:4px;&quot;&gt;+ calculateVerticalMovement(speed: float, deltaTime: float) : Vector2&lt;/p&gt;&lt;div&gt;&lt;br&gt;&lt;/div&gt;" style="verticalAlign=top;align=left;overflow=fill;html=1;whiteSpace=wrap;" vertex="1" parent="WIyWlLk6GJQsqaUBKTNV-1">
          <mxGeometry x="642.5" y="3100" width="300" height="230" as="geometry" />
        </mxCell>
        <mxCell id="6f671lk-CQySdU4DPiXB-41" value="&lt;p style=&quot;margin:0px;margin-top:4px;text-align:center;&quot;&gt;&lt;b&gt;Block&lt;/b&gt;&lt;br&gt;&lt;/p&gt;&lt;hr size=&quot;1&quot; style=&quot;border-style:solid;&quot;&gt;&lt;p style=&quot;margin:0px;margin-left:4px;&quot;&gt;&lt;span style=&quot;background-color: initial;&quot;&gt;+ Block(x: float, y: float, width: float, height: float, texturePath: String, entityType: String, isVisible: boolean, isInteractable: boolean)&lt;/span&gt;&lt;br&gt;&lt;/p&gt;&lt;p style=&quot;margin:0px;margin-left:4px;&quot;&gt;+ move(allEntities: ArrayList&amp;lt;Entity&amp;gt;, deltaTime: float) : void&lt;/p&gt;&lt;p style=&quot;margin:0px;margin-left:4px;&quot;&gt;+ isGameEnd() : boolean&lt;/p&gt;&lt;div&gt;&lt;br&gt;&lt;/div&gt;" style="verticalAlign=top;align=left;overflow=fill;html=1;whiteSpace=wrap;" vertex="1" parent="WIyWlLk6GJQsqaUBKTNV-1">
          <mxGeometry x="-280" y="2910" width="240" height="120" as="geometry" />
        </mxCell>
        <mxCell id="6f671lk-CQySdU4DPiXB-43" value="&lt;p style=&quot;margin:0px;margin-top:4px;text-align:center;&quot;&gt;&lt;b&gt;BlockManager&lt;/b&gt;&lt;br&gt;&lt;/p&gt;&lt;hr size=&quot;1&quot; style=&quot;border-style:solid;&quot;&gt;&lt;p style=&quot;margin:0px;margin-left:4px;&quot;&gt;- MAX_ATTEMPTS : int = 100&lt;/p&gt;&lt;hr size=&quot;1&quot; style=&quot;border-style:solid;&quot;&gt;&lt;p style=&quot;margin:0px;margin-left:4px;&quot;&gt;+ createBlocks(blockPositions: ArrayList&amp;lt;Point&amp;gt;) : ArrayList&amp;lt;Block&amp;gt;&lt;/p&gt;&lt;p style=&quot;margin:0px;margin-left:4px;&quot;&gt;+ createExitPortal(position: Point) : Block&lt;/p&gt;&lt;p style=&quot;margin:0px;margin-left:4px;&quot;&gt;+ createRandomBlocks(numOfBlocks: int, allEntityPosition: ArrayList&amp;lt;Point&amp;gt;, assetFilePath: String, entityType: String) : ArrayList&amp;lt;Block&amp;gt;&lt;/p&gt;" style="verticalAlign=top;align=left;overflow=fill;html=1;whiteSpace=wrap;" vertex="1" parent="WIyWlLk6GJQsqaUBKTNV-1">
          <mxGeometry x="32.5" y="2860" width="240" height="170" as="geometry" />
        </mxCell>
        <mxCell id="6f671lk-CQySdU4DPiXB-44" value="&lt;p style=&quot;margin:0px;margin-top:4px;text-align:center;&quot;&gt;&lt;b&gt;Player&lt;/b&gt;&lt;br&gt;&lt;/p&gt;&lt;hr size=&quot;1&quot; style=&quot;border-style:solid;&quot;&gt;&lt;p style=&quot;margin:0px;margin-left:4px;&quot;&gt;- texture : Texture&lt;/p&gt;&lt;p style=&quot;margin:0px;margin-left:4px;&quot;&gt;- movement : Movement&lt;/p&gt;&lt;p style=&quot;margin:0px;margin-left:4px;&quot;&gt;- entityManager : EntityManager&lt;/p&gt;&lt;p style=&quot;margin:0px;margin-left:4px;&quot;&gt;- isAppleEffectActive : boolean&lt;/p&gt;&lt;p style=&quot;margin:0px;margin-left:4px;&quot;&gt;- isCarrotEffectActive : boolean&lt;/p&gt;&lt;p style=&quot;margin:0px;margin-left:4px;&quot;&gt;- isBurgerEffectActive : boolean&lt;/p&gt;&lt;hr size=&quot;1&quot; style=&quot;border-style:solid;&quot;&gt;&lt;p style=&quot;margin:0px;margin-left:4px;&quot;&gt;+ Player(x: float, y: float, width: float, height: float, speed: float, texturePath: String, entityType: String, keyStrokeManager: KeyStrokeManager, entityManager: EntityManager)&lt;/p&gt;&lt;p style=&quot;margin:0px;margin-left:4px;&quot;&gt;+ isAppleEffectActive() : boolean&lt;/p&gt;&lt;p style=&quot;margin:0px;margin-left:4px;&quot;&gt;+ setAppleEffectActive(active: boolean) : void&lt;/p&gt;&lt;p style=&quot;margin:0px;margin-left:4px;&quot;&gt;+ isCarrotEffectActive() : boolean&lt;/p&gt;&lt;p style=&quot;margin:0px;margin-left:4px;&quot;&gt;+ setCarrotEffectActive(active: boolean) : void&lt;/p&gt;&lt;p style=&quot;margin:0px;margin-left:4px;&quot;&gt;+ isBurgerEffectActive() : boolean&lt;/p&gt;&lt;p style=&quot;margin:0px;margin-left:4px;&quot;&gt;+ setBurgerEffectActive(active: boolean) : void&lt;/p&gt;&lt;p style=&quot;margin:0px;margin-left:4px;&quot;&gt;+ move(allEntities: ArrayList&amp;lt;Entity&amp;gt;, deltaTime: float) : void&lt;/p&gt;&lt;p style=&quot;margin:0px;margin-left:4px;&quot;&gt;+ isGameEnd() : boolean&lt;/p&gt;&lt;p style=&quot;margin:0px;margin-left:4px;&quot;&gt;+ dispose() : void&lt;/p&gt;" style="verticalAlign=top;align=left;overflow=fill;html=1;whiteSpace=wrap;" vertex="1" parent="WIyWlLk6GJQsqaUBKTNV-1">
          <mxGeometry x="42.5" y="3130" width="250" height="400" as="geometry" />
        </mxCell>
        <mxCell id="6f671lk-CQySdU4DPiXB-45" value="&lt;p style=&quot;margin:0px;margin-top:4px;text-align:center;&quot;&gt;&lt;b&gt;GameCollision&lt;/b&gt;&lt;br&gt;&lt;/p&gt;&lt;hr size=&quot;1&quot; style=&quot;border-style:solid;&quot;&gt;&lt;p style=&quot;margin:0px;margin-left:4px;&quot;&gt;- timerApple : Timer&lt;/p&gt;&lt;p style=&quot;margin:0px;margin-left:4px;&quot;&gt;- timerBurger : Timer&lt;/p&gt;&lt;p style=&quot;margin:0px;margin-left:4px;&quot;&gt;- entityType : String&lt;/p&gt;&lt;hr size=&quot;1&quot; style=&quot;border-style:solid;&quot;&gt;&lt;p style=&quot;margin:0px;margin-left:4px;&quot;&gt;+ collideEffect(collidedEntity: Entity, player: Player) : void&lt;/p&gt;&lt;p style=&quot;margin:0px;margin-left:4px;&quot;&gt;+ isEntityOnBlock(entity: Entity, blocks: ArrayList&amp;lt;Entity&amp;gt;): boolean&lt;br&gt;&lt;/p&gt;" style="verticalAlign=top;align=left;overflow=fill;html=1;whiteSpace=wrap;" vertex="1" parent="WIyWlLk6GJQsqaUBKTNV-1">
          <mxGeometry x="352.5" y="3120" width="250" height="150" as="geometry" />
        </mxCell>
        <mxCell id="6f671lk-CQySdU4DPiXB-47" value="" style="endArrow=diamondThin;endFill=1;endSize=24;html=1;rounded=0;exitX=0.5;exitY=1;exitDx=0;exitDy=0;" edge="1" parent="WIyWlLk6GJQsqaUBKTNV-1" source="6f671lk-CQySdU4DPiXB-24" target="6f671lk-CQySdU4DPiXB-28">
          <mxGeometry width="160" relative="1" as="geometry">
            <mxPoint x="180" y="1360" as="sourcePoint" />
            <mxPoint x="340" y="1360" as="targetPoint" />
          </mxGeometry>
        </mxCell>
        <mxCell id="6f671lk-CQySdU4DPiXB-49" value="Extends" style="endArrow=block;endSize=16;endFill=0;html=1;rounded=0;entryX=0.5;entryY=0;entryDx=0;entryDy=0;" edge="1" parent="WIyWlLk6GJQsqaUBKTNV-1" source="6f671lk-CQySdU4DPiXB-35" target="6f671lk-CQySdU4DPiXB-33">
          <mxGeometry width="160" relative="1" as="geometry">
            <mxPoint x="420" y="1840" as="sourcePoint" />
            <mxPoint x="580" y="1840" as="targetPoint" />
          </mxGeometry>
        </mxCell>
        <mxCell id="6f671lk-CQySdU4DPiXB-50" value="Extends" style="endArrow=block;endSize=16;endFill=0;html=1;rounded=0;" edge="1" parent="WIyWlLk6GJQsqaUBKTNV-1" source="6f671lk-CQySdU4DPiXB-36" target="6f671lk-CQySdU4DPiXB-33">
          <mxGeometry width="160" relative="1" as="geometry">
            <mxPoint x="423" y="1830" as="sourcePoint" />
            <mxPoint x="470" y="1900" as="targetPoint" />
          </mxGeometry>
        </mxCell>
        <mxCell id="6f671lk-CQySdU4DPiXB-51" value="" style="endArrow=diamondThin;endFill=1;endSize=24;html=1;rounded=0;" edge="1" parent="WIyWlLk6GJQsqaUBKTNV-1" source="6f671lk-CQySdU4DPiXB-12" target="6f671lk-CQySdU4DPiXB-28">
          <mxGeometry width="160" relative="1" as="geometry">
            <mxPoint x="210" y="1270" as="sourcePoint" />
            <mxPoint x="209" y="1450" as="targetPoint" />
          </mxGeometry>
        </mxCell>
        <mxCell id="6f671lk-CQySdU4DPiXB-52" value="" style="endArrow=diamondThin;endFill=1;endSize=24;html=1;rounded=0;" edge="1" parent="WIyWlLk6GJQsqaUBKTNV-1" source="6f671lk-CQySdU4DPiXB-18" target="6f671lk-CQySdU4DPiXB-28">
          <mxGeometry width="160" relative="1" as="geometry">
            <mxPoint x="220" y="1280" as="sourcePoint" />
            <mxPoint x="219" y="1460" as="targetPoint" />
          </mxGeometry>
        </mxCell>
        <mxCell id="6f671lk-CQySdU4DPiXB-55" value="Use" style="endArrow=open;endSize=12;dashed=1;html=1;rounded=0;" edge="1" parent="WIyWlLk6GJQsqaUBKTNV-1" source="6f671lk-CQySdU4DPiXB-28" target="6f671lk-CQySdU4DPiXB-29">
          <mxGeometry width="160" relative="1" as="geometry">
            <mxPoint x="1024" y="1130" as="sourcePoint" />
            <mxPoint x="300" y="1885" as="targetPoint" />
          </mxGeometry>
        </mxCell>
        <mxCell id="6f671lk-CQySdU4DPiXB-56" value="Use" style="endArrow=open;endSize=12;dashed=1;html=1;rounded=0;" edge="1" parent="WIyWlLk6GJQsqaUBKTNV-1" source="6f671lk-CQySdU4DPiXB-45" target="6f671lk-CQySdU4DPiXB-29">
          <mxGeometry width="160" relative="1" as="geometry">
            <mxPoint x="202" y="1650" as="sourcePoint" />
            <mxPoint x="199" y="1690" as="targetPoint" />
          </mxGeometry>
        </mxCell>
        <mxCell id="6f671lk-CQySdU4DPiXB-57" value="Use" style="endArrow=open;endSize=12;dashed=1;html=1;rounded=0;" edge="1" parent="WIyWlLk6GJQsqaUBKTNV-1" source="6f671lk-CQySdU4DPiXB-43" target="6f671lk-CQySdU4DPiXB-29">
          <mxGeometry width="160" relative="1" as="geometry">
            <mxPoint x="471" y="2660" as="sourcePoint" />
            <mxPoint x="300" y="2278" as="targetPoint" />
          </mxGeometry>
        </mxCell>
        <mxCell id="6f671lk-CQySdU4DPiXB-58" value="Use" style="endArrow=open;endSize=12;dashed=1;html=1;rounded=0;" edge="1" parent="WIyWlLk6GJQsqaUBKTNV-1" source="6f671lk-CQySdU4DPiXB-44" target="6f671lk-CQySdU4DPiXB-29">
          <mxGeometry width="160" relative="1" as="geometry">
            <mxPoint x="180" y="2490" as="sourcePoint" />
            <mxPoint x="180" y="2330" as="targetPoint" />
          </mxGeometry>
        </mxCell>
        <mxCell id="6f671lk-CQySdU4DPiXB-59" value="Use" style="endArrow=open;endSize=12;dashed=1;html=1;rounded=0;" edge="1" parent="WIyWlLk6GJQsqaUBKTNV-1" source="6f671lk-CQySdU4DPiXB-40" target="6f671lk-CQySdU4DPiXB-29">
          <mxGeometry width="160" relative="1" as="geometry">
            <mxPoint x="184" y="2680" as="sourcePoint" />
            <mxPoint x="182" y="2330" as="targetPoint" />
          </mxGeometry>
        </mxCell>
        <mxCell id="6f671lk-CQySdU4DPiXB-60" value="Use" style="endArrow=open;endSize=12;dashed=1;html=1;rounded=0;" edge="1" parent="WIyWlLk6GJQsqaUBKTNV-1" source="6f671lk-CQySdU4DPiXB-30" target="6f671lk-CQySdU4DPiXB-29">
          <mxGeometry width="160" relative="1" as="geometry">
            <mxPoint x="426" y="2390" as="sourcePoint" />
            <mxPoint x="300" y="2196" as="targetPoint" />
          </mxGeometry>
        </mxCell>
        <mxCell id="6f671lk-CQySdU4DPiXB-61" value="Use" style="endArrow=open;endSize=12;dashed=1;html=1;rounded=0;" edge="1" parent="WIyWlLk6GJQsqaUBKTNV-1" source="6f671lk-CQySdU4DPiXB-31" target="6f671lk-CQySdU4DPiXB-29">
          <mxGeometry width="160" relative="1" as="geometry">
            <mxPoint x="426" y="1640" as="sourcePoint" />
            <mxPoint x="300" y="1830" as="targetPoint" />
          </mxGeometry>
        </mxCell>
        <mxCell id="6f671lk-CQySdU4DPiXB-62" value="Use" style="endArrow=open;endSize=12;dashed=1;html=1;rounded=0;" edge="1" parent="WIyWlLk6GJQsqaUBKTNV-1" source="6f671lk-CQySdU4DPiXB-33" target="6f671lk-CQySdU4DPiXB-29">
          <mxGeometry width="160" relative="1" as="geometry">
            <mxPoint x="385" y="1836" as="sourcePoint" />
            <mxPoint x="300" y="1908" as="targetPoint" />
          </mxGeometry>
        </mxCell>
        <mxCell id="6f671lk-CQySdU4DPiXB-63" value="Use" style="endArrow=open;endSize=12;dashed=1;html=1;rounded=0;" edge="1" parent="WIyWlLk6GJQsqaUBKTNV-1" source="6f671lk-CQySdU4DPiXB-35" target="6f671lk-CQySdU4DPiXB-29">
          <mxGeometry width="160" relative="1" as="geometry">
            <mxPoint x="340" y="2072" as="sourcePoint" />
            <mxPoint x="300" y="2056" as="targetPoint" />
          </mxGeometry>
        </mxCell>
        <mxCell id="6f671lk-CQySdU4DPiXB-64" value="Use" style="endArrow=open;endSize=12;dashed=1;html=1;rounded=0;fontStyle=1" edge="1" parent="WIyWlLk6GJQsqaUBKTNV-1" source="6f671lk-CQySdU4DPiXB-36" target="6f671lk-CQySdU4DPiXB-29">
          <mxGeometry width="160" relative="1" as="geometry">
            <mxPoint x="350" y="2082" as="sourcePoint" />
            <mxPoint x="310" y="2066" as="targetPoint" />
          </mxGeometry>
        </mxCell>
        <mxCell id="6f671lk-CQySdU4DPiXB-65" value="Use" style="endArrow=open;endSize=12;dashed=1;html=1;rounded=0;" edge="1" parent="WIyWlLk6GJQsqaUBKTNV-1" source="6f671lk-CQySdU4DPiXB-37" target="6f671lk-CQySdU4DPiXB-29">
          <mxGeometry width="160" relative="1" as="geometry">
            <mxPoint x="360" y="2092" as="sourcePoint" />
            <mxPoint x="320" y="2076" as="targetPoint" />
          </mxGeometry>
        </mxCell>
        <mxCell id="6f671lk-CQySdU4DPiXB-66" value="Use" style="endArrow=open;endSize=12;dashed=1;html=1;rounded=0;" edge="1" parent="WIyWlLk6GJQsqaUBKTNV-1" source="6f671lk-CQySdU4DPiXB-38" target="6f671lk-CQySdU4DPiXB-29">
          <mxGeometry width="160" relative="1" as="geometry">
            <mxPoint x="370" y="2102" as="sourcePoint" />
            <mxPoint x="330" y="2086" as="targetPoint" />
          </mxGeometry>
        </mxCell>
        <mxCell id="6f671lk-CQySdU4DPiXB-67" value="Use" style="endArrow=open;endSize=12;dashed=1;html=1;rounded=0;" edge="1" parent="WIyWlLk6GJQsqaUBKTNV-1" source="6f671lk-CQySdU4DPiXB-39" target="6f671lk-CQySdU4DPiXB-29">
          <mxGeometry width="160" relative="1" as="geometry">
            <mxPoint x="380" y="2112" as="sourcePoint" />
            <mxPoint x="340" y="2096" as="targetPoint" />
          </mxGeometry>
        </mxCell>
        <mxCell id="6f671lk-CQySdU4DPiXB-71" value="" style="endArrow=open;endFill=1;endSize=12;html=1;rounded=0;" edge="1" parent="WIyWlLk6GJQsqaUBKTNV-1" source="6f671lk-CQySdU4DPiXB-30" target="6f671lk-CQySdU4DPiXB-12">
          <mxGeometry width="160" relative="1" as="geometry">
            <mxPoint x="840" y="1470" as="sourcePoint" />
            <mxPoint x="1000" y="1470" as="targetPoint" />
          </mxGeometry>
        </mxCell>
        <mxCell id="6f671lk-CQySdU4DPiXB-72" value="" style="endArrow=open;endFill=1;endSize=12;html=1;rounded=0;" edge="1" parent="WIyWlLk6GJQsqaUBKTNV-1" source="6f671lk-CQySdU4DPiXB-31" target="6f671lk-CQySdU4DPiXB-12">
          <mxGeometry width="160" relative="1" as="geometry">
            <mxPoint x="915" y="1420" as="sourcePoint" />
            <mxPoint x="862" y="1360" as="targetPoint" />
          </mxGeometry>
        </mxCell>
        <mxCell id="6f671lk-CQySdU4DPiXB-73" value="" style="endArrow=open;endFill=1;endSize=12;html=1;rounded=0;" edge="1" parent="WIyWlLk6GJQsqaUBKTNV-1" source="6f671lk-CQySdU4DPiXB-37" target="6f671lk-CQySdU4DPiXB-12">
          <mxGeometry width="160" relative="1" as="geometry">
            <mxPoint x="1038" y="1580" as="sourcePoint" />
            <mxPoint x="896" y="1280" as="targetPoint" />
          </mxGeometry>
        </mxCell>
        <mxCell id="6f671lk-CQySdU4DPiXB-74" value="" style="endArrow=open;endFill=1;endSize=12;html=1;rounded=0;" edge="1" parent="WIyWlLk6GJQsqaUBKTNV-1" source="6f671lk-CQySdU4DPiXB-38" target="6f671lk-CQySdU4DPiXB-12">
          <mxGeometry width="160" relative="1" as="geometry">
            <mxPoint x="1041" y="1840" as="sourcePoint" />
            <mxPoint x="875" y="1280" as="targetPoint" />
          </mxGeometry>
        </mxCell>
        <mxCell id="6f671lk-CQySdU4DPiXB-75" value="" style="endArrow=open;endFill=1;endSize=12;html=1;rounded=0;" edge="1" parent="WIyWlLk6GJQsqaUBKTNV-1" source="6f671lk-CQySdU4DPiXB-39" target="6f671lk-CQySdU4DPiXB-12">
          <mxGeometry width="160" relative="1" as="geometry">
            <mxPoint x="1051" y="1850" as="sourcePoint" />
            <mxPoint x="885" y="1290" as="targetPoint" />
          </mxGeometry>
        </mxCell>
        <mxCell id="6f671lk-CQySdU4DPiXB-76" value="" style="endArrow=open;endFill=1;endSize=12;html=1;rounded=0;" edge="1" parent="WIyWlLk6GJQsqaUBKTNV-1" source="6f671lk-CQySdU4DPiXB-36" target="6f671lk-CQySdU4DPiXB-12">
          <mxGeometry width="160" relative="1" as="geometry">
            <mxPoint x="1061" y="1860" as="sourcePoint" />
            <mxPoint x="895" y="1300" as="targetPoint" />
          </mxGeometry>
        </mxCell>
        <mxCell id="6f671lk-CQySdU4DPiXB-77" value="" style="endArrow=open;endFill=1;endSize=12;html=1;rounded=0;" edge="1" parent="WIyWlLk6GJQsqaUBKTNV-1" source="6f671lk-CQySdU4DPiXB-35" target="6f671lk-CQySdU4DPiXB-12">
          <mxGeometry width="160" relative="1" as="geometry">
            <mxPoint x="464" y="1450" as="sourcePoint" />
            <mxPoint x="720" y="1253" as="targetPoint" />
          </mxGeometry>
        </mxCell>
        <mxCell id="6f671lk-CQySdU4DPiXB-78" value="" style="endArrow=open;endFill=1;endSize=12;html=1;rounded=0;" edge="1" parent="WIyWlLk6GJQsqaUBKTNV-1" source="6f671lk-CQySdU4DPiXB-30" target="6f671lk-CQySdU4DPiXB-15">
          <mxGeometry width="160" relative="1" as="geometry">
            <mxPoint x="1031" y="1580" as="sourcePoint" />
            <mxPoint x="885" y="1310" as="targetPoint" />
          </mxGeometry>
        </mxCell>
        <mxCell id="6f671lk-CQySdU4DPiXB-79" value="" style="endArrow=open;endFill=1;endSize=12;html=1;rounded=0;" edge="1" parent="WIyWlLk6GJQsqaUBKTNV-1" source="6f671lk-CQySdU4DPiXB-31" target="6f671lk-CQySdU4DPiXB-15">
          <mxGeometry width="160" relative="1" as="geometry">
            <mxPoint x="1039" y="1340" as="sourcePoint" />
            <mxPoint x="855" y="930" as="targetPoint" />
          </mxGeometry>
        </mxCell>
        <mxCell id="6f671lk-CQySdU4DPiXB-80" value="" style="endArrow=open;endFill=1;endSize=12;html=1;rounded=0;" edge="1" parent="WIyWlLk6GJQsqaUBKTNV-1" source="6f671lk-CQySdU4DPiXB-37" target="6f671lk-CQySdU4DPiXB-15">
          <mxGeometry width="160" relative="1" as="geometry">
            <mxPoint x="1050" y="1580" as="sourcePoint" />
            <mxPoint x="842" y="930" as="targetPoint" />
          </mxGeometry>
        </mxCell>
        <mxCell id="6f671lk-CQySdU4DPiXB-81" value="" style="endArrow=open;endFill=1;endSize=12;html=1;rounded=0;" edge="1" parent="WIyWlLk6GJQsqaUBKTNV-1" source="6f671lk-CQySdU4DPiXB-38" target="6f671lk-CQySdU4DPiXB-15">
          <mxGeometry width="160" relative="1" as="geometry">
            <mxPoint x="1048" y="1840" as="sourcePoint" />
            <mxPoint x="834" y="930" as="targetPoint" />
          </mxGeometry>
        </mxCell>
        <mxCell id="6f671lk-CQySdU4DPiXB-82" value="" style="endArrow=open;endFill=1;endSize=12;html=1;rounded=0;" edge="1" parent="WIyWlLk6GJQsqaUBKTNV-1" source="6f671lk-CQySdU4DPiXB-39" target="6f671lk-CQySdU4DPiXB-15">
          <mxGeometry width="160" relative="1" as="geometry">
            <mxPoint x="1049" y="2130" as="sourcePoint" />
            <mxPoint x="828" y="930" as="targetPoint" />
          </mxGeometry>
        </mxCell>
        <mxCell id="6f671lk-CQySdU4DPiXB-83" value="" style="endArrow=open;endFill=1;endSize=12;html=1;rounded=0;" edge="1" parent="WIyWlLk6GJQsqaUBKTNV-1" source="6f671lk-CQySdU4DPiXB-35" target="6f671lk-CQySdU4DPiXB-15">
          <mxGeometry width="160" relative="1" as="geometry">
            <mxPoint x="1011" y="2100" as="sourcePoint" />
            <mxPoint x="729" y="1690" as="targetPoint" />
          </mxGeometry>
        </mxCell>
        <mxCell id="6f671lk-CQySdU4DPiXB-84" value="" style="endArrow=open;endFill=1;endSize=12;html=1;rounded=0;" edge="1" parent="WIyWlLk6GJQsqaUBKTNV-1" source="6f671lk-CQySdU4DPiXB-36" target="6f671lk-CQySdU4DPiXB-15">
          <mxGeometry width="160" relative="1" as="geometry">
            <mxPoint x="121" y="2010" as="sourcePoint" />
            <mxPoint x="532" y="1690" as="targetPoint" />
          </mxGeometry>
        </mxCell>
        <mxCell id="6f671lk-CQySdU4DPiXB-85" value="" style="endArrow=open;endFill=1;endSize=12;html=1;rounded=0;" edge="1" parent="WIyWlLk6GJQsqaUBKTNV-1" source="6f671lk-CQySdU4DPiXB-35" target="6f671lk-CQySdU4DPiXB-24">
          <mxGeometry width="160" relative="1" as="geometry">
            <mxPoint x="52" y="2010" as="sourcePoint" />
            <mxPoint x="219" y="1730" as="targetPoint" />
          </mxGeometry>
        </mxCell>
        <mxCell id="6f671lk-CQySdU4DPiXB-86" value="" style="endArrow=open;endFill=1;endSize=12;html=1;rounded=0;" edge="1" parent="WIyWlLk6GJQsqaUBKTNV-1" source="6f671lk-CQySdU4DPiXB-36" target="6f671lk-CQySdU4DPiXB-24">
          <mxGeometry width="160" relative="1" as="geometry">
            <mxPoint x="143" y="2027" as="sourcePoint" />
            <mxPoint x="940" y="1583" as="targetPoint" />
          </mxGeometry>
        </mxCell>
        <mxCell id="6f671lk-CQySdU4DPiXB-87" value="" style="endArrow=open;endFill=1;endSize=12;html=1;rounded=0;" edge="1" parent="WIyWlLk6GJQsqaUBKTNV-1" source="6f671lk-CQySdU4DPiXB-36" target="6f671lk-CQySdU4DPiXB-18">
          <mxGeometry width="160" relative="1" as="geometry">
            <mxPoint x="461" y="1970" as="sourcePoint" />
            <mxPoint x="940" y="1612" as="targetPoint" />
          </mxGeometry>
        </mxCell>
        <mxCell id="6f671lk-CQySdU4DPiXB-89" value="" style="endArrow=open;endFill=1;endSize=12;html=1;rounded=0;" edge="1" parent="WIyWlLk6GJQsqaUBKTNV-1" source="6f671lk-CQySdU4DPiXB-35" target="6f671lk-CQySdU4DPiXB-18">
          <mxGeometry width="160" relative="1" as="geometry">
            <mxPoint x="50" y="1874" as="sourcePoint" />
            <mxPoint x="106" y="1290" as="targetPoint" />
          </mxGeometry>
        </mxCell>
        <mxCell id="6f671lk-CQySdU4DPiXB-90" value="Extends" style="endArrow=block;endSize=16;endFill=0;html=1;rounded=0;" edge="1" parent="WIyWlLk6GJQsqaUBKTNV-1" source="6f671lk-CQySdU4DPiXB-28" target="6f671lk-CQySdU4DPiXB-7">
          <mxGeometry width="160" relative="1" as="geometry">
            <mxPoint x="1140" y="1330" as="sourcePoint" />
            <mxPoint x="1300" y="1330" as="targetPoint" />
          </mxGeometry>
        </mxCell>
        <mxCell id="6f671lk-CQySdU4DPiXB-91" value="Extends" style="endArrow=block;endSize=16;endFill=0;html=1;rounded=0;" edge="1" parent="WIyWlLk6GJQsqaUBKTNV-1" source="6f671lk-CQySdU4DPiXB-33" target="6f671lk-CQySdU4DPiXB-11">
          <mxGeometry width="160" relative="1" as="geometry">
            <mxPoint x="652" y="1930" as="sourcePoint" />
            <mxPoint x="466" y="230" as="targetPoint" />
          </mxGeometry>
        </mxCell>
        <mxCell id="6f671lk-CQySdU4DPiXB-92" value="Extends" style="endArrow=block;endSize=16;endFill=0;html=1;rounded=0;" edge="1" parent="WIyWlLk6GJQsqaUBKTNV-1" source="6f671lk-CQySdU4DPiXB-31" target="6f671lk-CQySdU4DPiXB-11">
          <mxGeometry width="160" relative="1" as="geometry">
            <mxPoint x="175" y="2320" as="sourcePoint" />
            <mxPoint x="471" y="640" as="targetPoint" />
          </mxGeometry>
        </mxCell>
        <mxCell id="6f671lk-CQySdU4DPiXB-93" value="Extends" style="endArrow=block;endSize=16;endFill=0;html=1;rounded=0;" edge="1" parent="WIyWlLk6GJQsqaUBKTNV-1" source="6f671lk-CQySdU4DPiXB-30" target="6f671lk-CQySdU4DPiXB-11">
          <mxGeometry width="160" relative="1" as="geometry">
            <mxPoint x="1042" y="2100" as="sourcePoint" />
            <mxPoint x="555" y="640" as="targetPoint" />
          </mxGeometry>
        </mxCell>
        <mxCell id="6f671lk-CQySdU4DPiXB-94" value="Extends" style="endArrow=block;endSize=16;endFill=0;html=1;rounded=0;" edge="1" parent="WIyWlLk6GJQsqaUBKTNV-1" source="6f671lk-CQySdU4DPiXB-37" target="6f671lk-CQySdU4DPiXB-11">
          <mxGeometry width="160" relative="1" as="geometry">
            <mxPoint x="1037" y="1860" as="sourcePoint" />
            <mxPoint x="564" y="640" as="targetPoint" />
          </mxGeometry>
        </mxCell>
        <mxCell id="6f671lk-CQySdU4DPiXB-95" value="Extends" style="endArrow=block;endSize=16;endFill=0;html=1;rounded=0;" edge="1" parent="WIyWlLk6GJQsqaUBKTNV-1" source="6f671lk-CQySdU4DPiXB-38" target="6f671lk-CQySdU4DPiXB-11">
          <mxGeometry width="160" relative="1" as="geometry">
            <mxPoint x="1035" y="2360" as="sourcePoint" />
            <mxPoint x="547" y="640" as="targetPoint" />
          </mxGeometry>
        </mxCell>
        <mxCell id="6f671lk-CQySdU4DPiXB-96" value="Extends" style="endArrow=block;endSize=16;endFill=0;html=1;rounded=0;" edge="1" parent="WIyWlLk6GJQsqaUBKTNV-1" source="6f671lk-CQySdU4DPiXB-38" target="6f671lk-CQySdU4DPiXB-11">
          <mxGeometry width="160" relative="1" as="geometry">
            <mxPoint x="1045" y="2370" as="sourcePoint" />
            <mxPoint x="557" y="650" as="targetPoint" />
          </mxGeometry>
        </mxCell>
        <mxCell id="6f671lk-CQySdU4DPiXB-97" value="Extends" style="endArrow=block;endSize=16;endFill=0;html=1;rounded=0;" edge="1" parent="WIyWlLk6GJQsqaUBKTNV-1" source="6f671lk-CQySdU4DPiXB-39" target="6f671lk-CQySdU4DPiXB-11">
          <mxGeometry width="160" relative="1" as="geometry">
            <mxPoint x="1034" y="2650" as="sourcePoint" />
            <mxPoint x="541" y="640" as="targetPoint" />
          </mxGeometry>
        </mxCell>
        <mxCell id="6f671lk-CQySdU4DPiXB-99" value="Extends" style="endArrow=block;endSize=16;endFill=0;html=1;rounded=0;" edge="1" parent="WIyWlLk6GJQsqaUBKTNV-1" source="6f671lk-CQySdU4DPiXB-40" target="6f671lk-CQySdU4DPiXB-27">
          <mxGeometry width="160" relative="1" as="geometry">
            <mxPoint x="975" y="1865" as="sourcePoint" />
            <mxPoint x="370" y="1356" as="targetPoint" />
          </mxGeometry>
        </mxCell>
        <mxCell id="6f671lk-CQySdU4DPiXB-100" value="" style="endArrow=open;endFill=1;endSize=12;html=1;rounded=0;" edge="1" parent="WIyWlLk6GJQsqaUBKTNV-1" source="6f671lk-CQySdU4DPiXB-44" target="6f671lk-CQySdU4DPiXB-40">
          <mxGeometry width="160" relative="1" as="geometry">
            <mxPoint x="461" y="1970" as="sourcePoint" />
            <mxPoint x="940" y="1612" as="targetPoint" />
          </mxGeometry>
        </mxCell>
      </root>
    </mxGraphModel>
  </diagram>
</mxfile>
